<svg width="112" height="112" viewBox="0 0 112 112" fill="none" xmlns="http://www.w3.org/2000/svg">
<path d="M77.3367 36.657C77.3367 36.1156 76.8937 35.6727 76.3523 35.6727L68.2312 35.7096L56.0004 50.2906L43.7818 35.7219L35.6484 35.685C35.107 35.685 34.6641 36.1156 34.6641 36.6693C34.6641 36.9031 34.7502 37.1246 34.8979 37.3092L50.9062 56.3815L34.8979 75.4414C34.7492 75.6218 34.6667 75.8476 34.6641 76.0813C34.6641 76.6227 35.107 77.0656 35.6484 77.0656L43.7818 77.0287L56.0004 62.4477L68.2189 77.0164L76.34 77.0533C76.8814 77.0533 77.3244 76.6227 77.3244 76.069C77.3244 75.8352 77.2383 75.6137 77.0906 75.4291L61.1068 56.3692L77.1152 37.2969C77.2629 37.1246 77.3367 36.8908 77.3367 36.657Z" fill="#8348FF"/>
<path d="M56 0.998047C25.5582 0.998047 0.875 25.6813 0.875 56.123C0.875 86.5648 25.5582 111.248 56 111.248C86.4418 111.248 111.125 86.5648 111.125 56.123C111.125 25.6813 86.4418 0.998047 56 0.998047ZM56 101.896C30.7262 101.896 10.2266 81.3969 10.2266 56.123C10.2266 30.8492 30.7262 10.3496 56 10.3496C81.2738 10.3496 101.773 30.8492 101.773 56.123C101.773 81.3969 81.2738 101.896 56 101.896Z" fill="#8348FF"/>
</svg>
