<svg width="10" height="9" viewBox="0 0 10 9" fill="none" xmlns="http://www.w3.org/2000/svg">
<mask id="path-1-inside-1" fill="white">
<path d="M7.14625 0.954795C7.69603 1.21264 8.17732 1.59543 8.55134 2.07234C8.92537 2.54926 9.18168 3.10697 9.29963 3.70055C9.41759 4.29414 9.39389 4.90701 9.23045 5.48981C9.067 6.07261 8.76839 6.60905 8.35864 7.05592L8.80235 7.49771C9.28281 6.98012 9.63412 6.35716 9.82786 5.67926C10.0216 5.00136 10.0523 4.28757 9.91754 3.59566C9.78275 2.90374 9.48625 2.25314 9.05203 1.69652C8.61781 1.1399 8.05806 0.692883 7.4181 0.391662C7.34389 0.358451 7.25959 0.355374 7.18313 0.383085C7.10667 0.410796 7.04409 0.467109 7.00868 0.540051C6.97327 0.612993 6.96783 0.69681 6.99352 0.77368C7.01922 0.850551 7.07401 0.914411 7.14625 0.951684V0.954795Z"/>
</mask>
<path d="M7.14625 0.954795C7.69603 1.21264 8.17732 1.59543 8.55134 2.07234C8.92537 2.54926 9.18168 3.10697 9.29963 3.70055C9.41759 4.29414 9.39389 4.90701 9.23045 5.48981C9.067 6.07261 8.76839 6.60905 8.35864 7.05592L8.80235 7.49771C9.28281 6.98012 9.63412 6.35716 9.82786 5.67926C10.0216 5.00136 10.0523 4.28757 9.91754 3.59566C9.78275 2.90374 9.48625 2.25314 9.05203 1.69652C8.61781 1.1399 8.05806 0.692883 7.4181 0.391662C7.34389 0.358451 7.25959 0.355374 7.18313 0.383085C7.10667 0.410796 7.04409 0.467109 7.00868 0.540051C6.97327 0.612993 6.96783 0.69681 6.99352 0.77368C7.01922 0.850551 7.07401 0.914411 7.14625 0.951684V0.954795Z" fill="#8348FF"/>
<path d="M7.14625 0.954795H6.14625V1.59032L6.72164 1.86017L7.14625 0.954795ZM8.35864 7.05592L7.62158 6.38009L6.97301 7.08743L7.65307 7.76455L8.35864 7.05592ZM8.80235 7.49771L8.09677 8.20635L8.83068 8.93709L9.53526 8.17804L8.80235 7.49771ZM7.4181 0.391662L7.84397 -0.513122L7.83531 -0.517201L7.82657 -0.521113L7.4181 0.391662ZM7.14625 0.951684H8.14625V0.342361L7.60475 0.062988L7.14625 0.951684ZM6.72164 1.86017C7.13006 2.05171 7.48718 2.33589 7.76447 2.68945L9.33822 1.45523C8.86746 0.854969 8.26201 0.373555 7.57086 0.0494184L6.72164 1.86017ZM7.76447 2.68945C8.04174 3.043 8.23151 3.45612 8.31881 3.89546L10.2805 3.50565C10.1318 2.75782 9.80899 2.05551 9.33822 1.45523L7.76447 2.68945ZM8.31881 3.89546C8.40611 4.33479 8.38858 4.78837 8.26759 5.21979L10.1933 5.75984C10.3992 5.02565 10.4291 4.25349 10.2805 3.50565L8.31881 3.89546ZM8.26759 5.21979C8.1466 5.65121 7.92544 6.0487 7.62158 6.38009L9.0957 7.73174C9.61133 7.1694 9.98741 6.49401 10.1933 5.75984L8.26759 5.21979ZM7.65307 7.76455L8.09677 8.20635L9.50793 6.78908L9.06422 6.34728L7.65307 7.76455ZM9.53526 8.17804C10.1226 7.54533 10.5523 6.78349 10.7894 5.95405L8.86636 5.40447C8.71593 5.93083 8.44304 6.4149 8.06944 6.81739L9.53526 8.17804ZM10.7894 5.95405C11.0264 5.1246 11.064 4.25114 10.8991 3.40445L8.93599 3.78686C9.04062 4.32401 9.01678 4.87813 8.86636 5.40447L10.7894 5.95405ZM10.8991 3.40445C10.7342 2.55778 10.3714 1.762 9.84049 1.08144L8.26357 2.3116C8.60111 2.74429 8.83135 3.24971 8.93599 3.78686L10.8991 3.40445ZM9.84049 1.08144C9.30961 0.400902 8.62556 -0.145239 7.84397 -0.513122L6.99223 1.29645C7.49056 1.531 7.92601 1.87889 8.26357 2.3116L9.84049 1.08144ZM7.82657 -0.521113C7.51556 -0.660287 7.16262 -0.673135 6.84239 -0.557072L7.52387 1.32324C7.35655 1.38388 7.17222 1.37719 7.00964 1.30444L7.82657 -0.521113ZM6.84239 -0.557072C6.52204 -0.440967 6.25852 -0.20453 6.10907 0.103356L7.90829 0.976746C7.82965 1.13875 7.6913 1.26256 7.52387 1.32324L6.84239 -0.557072ZM6.10907 0.103356C5.95954 0.411381 5.9365 0.765736 6.04509 1.09067L7.94196 0.456695C7.99917 0.627884 7.98699 0.814605 7.90829 0.976746L6.10907 0.103356ZM6.04509 1.09067C6.15366 1.41548 6.38473 1.68404 6.68776 1.84038L7.60475 0.062988C7.76329 0.14478 7.88478 0.285618 7.94196 0.456695L6.04509 1.09067ZM6.14625 0.951684V0.954795H8.14625V0.951684H6.14625Z" fill="#8348FF" mask="url(#path-1-inside-1)"/>
<path d="M2.80262 3.10682L5.12448 5.41866V6.0914V8.27645L2.46215 5.96288L2.32107 5.84029H2.13418H0.5V3.10682H2.1248H2.80262Z" fill="#8348FF" stroke="#8348FF"/>
<path d="M6.71888 2.36801C6.72096 2.36944 6.72302 2.37092 6.72505 2.37244C6.72288 2.37116 6.7207 2.36989 6.71852 2.36862C6.71783 2.36822 6.71715 2.36782 6.71646 2.36742L6.68225 2.42631L6.68583 2.41169L6.69939 2.3563C6.70477 2.35911 6.71001 2.36217 6.71508 2.36547C6.71636 2.3663 6.71762 2.36715 6.71888 2.36801Z" fill="#8348FF" stroke="#8348FF"/>
<path d="M3.83458 1.84445L5.12535 0.723396V3.12807L3.83458 1.84445Z" fill="#8348FF" stroke="#8348FF"/>
</svg>
