<svg width="14" height="14" viewBox="0 0 14 14" fill="none" xmlns="http://www.w3.org/2000/svg">
<path d="M0.837203 0.10168L0.896002 0.15278L13.846 13.1028C13.9391 13.1966 13.9933 13.322 13.998 13.4541C14.0026 13.5861 13.9573 13.7151 13.8711 13.8152C13.7848 13.9153 13.664 13.9792 13.5327 13.9942C13.4014 14.0091 13.2693 13.974 13.1628 13.8959L13.104 13.8448L10.6477 11.3892C10.3425 11.4732 10.0247 11.525 9.69709 11.5425L9.44999 11.5488H4.5948L5.92479 12.8788L5.97099 12.932C6.04695 13.0326 6.08415 13.1572 6.0758 13.283C6.06744 13.4088 6.01408 13.5274 5.92547 13.6172C5.83687 13.7069 5.71894 13.7617 5.59324 13.7716C5.46754 13.7815 5.34247 13.7459 5.2409 13.6712L5.1821 13.6208L2.9547 11.3934L2.9078 11.3395C2.8392 11.2491 2.80172 11.139 2.80096 11.0255C2.8002 10.9121 2.83621 10.8014 2.9036 10.7102L2.9547 10.6507L5.1821 8.42327L5.236 8.37637C5.32635 8.30777 5.4365 8.27028 5.54995 8.26953C5.66339 8.26877 5.77403 8.30478 5.86529 8.37217L5.92409 8.42327L5.97169 8.47717C6.04019 8.5676 6.07755 8.67779 6.07818 8.79123C6.07881 8.90468 6.04268 9.01528 5.97519 9.10647L5.92409 9.16597L4.5906 10.4988H9.44999C9.54939 10.4988 9.64809 10.4946 9.74469 10.4869L3.0814 3.82077C2.58239 4.05143 2.14472 4.39639 1.80387 4.82771C1.46301 5.25902 1.22855 5.76457 1.11948 6.30338C1.01041 6.84219 1.0298 7.39912 1.17607 7.92905C1.32234 8.45897 1.59138 8.94699 1.9614 9.35357C2.01108 9.40397 2.05006 9.4639 2.07599 9.52975C2.10192 9.5956 2.11427 9.66602 2.11229 9.73676C2.11031 9.8075 2.09405 9.87712 2.06449 9.94142C2.03492 10.0057 1.99266 10.0634 1.94025 10.1109C1.88783 10.1585 1.82634 10.1949 1.75947 10.2181C1.6926 10.2413 1.62174 10.2507 1.55114 10.2458C1.48054 10.2409 1.41165 10.2218 1.34863 10.1896C1.28561 10.1574 1.22975 10.1128 1.1844 10.0585C0.421072 9.22244 -0.00147813 8.13085 3.88521e-06 6.99877C-0.000342262 6.19479 0.212411 5.40509 0.616593 4.7101C1.02078 4.01511 1.60194 3.43966 2.3009 3.04238L0.154004 0.894779C0.0609337 0.800979 0.00665729 0.675533 0.00200693 0.543477C-0.00264342 0.411421 0.0426742 0.282468 0.128915 0.182354C0.215157 0.0822396 0.335979 0.0183279 0.467268 0.00337409C0.598557 -0.0115797 0.730656 0.0235243 0.837203 0.10168V0.10168ZM12.425 3.76337C12.579 3.76337 12.7162 3.82917 12.8121 3.93417C13.5778 4.77092 14.0017 5.86453 14 6.99877C14 8.43867 13.3315 9.72176 12.2878 10.5555L11.5395 9.80646C11.9774 9.48104 12.3331 9.05761 12.578 8.57006C12.823 8.08251 12.9503 7.54438 12.95 6.99877C12.95 6.08457 12.6 5.25227 12.026 4.62857C11.9611 4.55228 11.9193 4.45901 11.9057 4.35978C11.8921 4.26054 11.9072 4.15948 11.9491 4.06851C11.991 3.97755 12.0581 3.90049 12.1425 3.84642C12.2268 3.79235 12.3248 3.76354 12.425 3.76337V3.76337ZM8.77309 0.28088L8.82699 0.32778L11.0544 2.55518C11.1441 2.64492 11.1984 2.76414 11.207 2.89078C11.2156 3.01742 11.1781 3.14289 11.1013 3.24398L11.0544 3.29717L8.82699 5.52457C8.73301 5.61922 8.60653 5.67454 8.47324 5.67932C8.33995 5.68409 8.20984 5.63796 8.10933 5.55028C8.00882 5.4626 7.94545 5.33995 7.93209 5.20725C7.91873 5.07454 7.95638 4.94173 8.03739 4.83577L8.08499 4.78257L9.36599 3.49877H5.2311L4.1951 2.46278C4.25895 2.45771 4.32289 2.45397 4.3869 2.45158L4.55 2.44878H9.46469L8.08499 1.06978C7.99523 0.980035 7.94102 0.860809 7.93239 0.734172C7.92377 0.607535 7.96132 0.482062 8.03809 0.380979L8.08569 0.32778C8.17539 0.238202 8.29448 0.184109 8.42096 0.175488C8.54744 0.166868 8.67276 0.204303 8.77379 0.28088H8.77309Z" fill="#8348FF"/>
</svg>
