<svg width="266" height="135" viewBox="0 0 266 135" fill="none" xmlns="http://www.w3.org/2000/svg">
<rect y="16" width="92" height="118" fill="white"/>
<path d="M59.6967 70.8509V76.844C59.6967 80.5528 58.2335 84.1097 55.629 86.7322C53.0245 89.3547 49.492 90.828 45.8087 90.828C42.1254 90.828 38.5929 89.3547 35.9884 86.7322C33.3839 84.1097 31.9207 80.5528 31.9207 76.844V70.8509H27.9526V76.844C27.9547 81.2651 29.5745 85.5303 32.5024 88.8249C35.4303 92.1195 39.4611 94.2123 43.8247 94.7035V98.8188H35.8887V102.814H55.7287V98.8188H47.7927V94.7035C52.1562 94.2123 56.1871 92.1195 59.115 88.8249C62.0429 85.5303 63.6627 81.2651 63.6648 76.844V70.8509H59.6967Z" fill="#8348FF"/>
<path d="M45.8097 86.8327C48.4406 86.8327 50.9638 85.7804 52.8242 83.9072C54.6846 82.0339 55.7297 79.4933 55.7297 76.8442V56.8671C55.7297 54.2179 54.6846 51.6773 52.8242 49.8041C50.9638 47.9309 48.4406 46.8785 45.8097 46.8785C43.1787 46.8785 40.6555 47.9309 38.7952 49.8041C36.9348 51.6773 35.8896 54.2179 35.8896 56.8671V76.8442C35.8896 79.4933 36.9348 82.0339 38.7952 83.9072C40.6555 85.7804 43.1787 86.8327 45.8097 86.8327Z" fill="#8348FF"/>
<path d="M6.57129 16H20.8094V55.7009L13.6903 45.7757L6.57129 55.7009V16Z" fill="#8348FF"/>
<path d="M130.803 51.1465V70H119.778V16.49H140.652C144.671 16.49 148.199 17.225 151.237 18.6951C154.299 20.1651 156.652 22.2599 158.293 24.9796C159.935 27.6747 160.755 30.7495 160.755 34.2042C160.755 39.4473 158.955 43.588 155.353 46.6261C151.776 49.6397 146.814 51.1465 140.469 51.1465H130.803ZM130.803 42.216H140.652C143.568 42.216 145.785 41.5299 147.304 40.1579C148.848 38.7858 149.62 36.8257 149.62 34.2777C149.62 31.6561 148.848 29.5367 147.304 27.9197C145.761 26.3026 143.629 25.4696 140.91 25.4206H130.803V42.216ZM212.318 44.4578C212.318 49.7255 211.387 54.3439 209.525 58.3131C207.662 62.2822 204.992 65.3448 201.513 67.5009C198.058 69.657 194.089 70.735 189.605 70.735C185.171 70.735 181.214 69.6692 177.735 67.5377C174.255 65.4061 171.56 62.368 169.649 58.4233C167.738 54.4542 166.77 49.897 166.746 44.7518V42.1057C166.746 36.838 167.689 32.2073 169.576 28.2137C171.487 24.1955 174.17 21.1207 177.624 18.9891C181.103 16.833 185.073 15.755 189.532 15.755C193.991 15.755 197.948 16.833 201.403 18.9891C204.882 21.1207 207.564 24.1955 209.451 28.2137C211.362 32.2073 212.318 36.8257 212.318 42.0689V44.4578ZM201.145 42.0322C201.145 36.4215 200.141 32.1583 198.132 29.2427C196.123 26.3271 193.256 24.8693 189.532 24.8693C185.832 24.8693 182.978 26.3149 180.969 29.206C178.96 32.0726 177.943 36.2867 177.918 41.8484V44.4578C177.918 49.9215 178.923 54.1602 180.932 57.1738C182.941 60.1874 185.832 61.6942 189.605 61.6942C193.305 61.6942 196.147 60.2486 198.132 57.3575C200.116 54.4419 201.121 50.2033 201.145 44.6415V42.0322ZM220.329 70V16.49H236.794C241.498 16.49 245.7 17.5558 249.4 19.6874C253.124 21.7944 256.027 24.808 258.11 28.7282C260.192 32.6238 261.234 37.0585 261.234 42.0322V44.4945C261.234 49.4682 260.205 53.8906 258.147 57.7618C256.113 61.6329 253.234 64.6343 249.51 66.7659C245.786 68.8975 241.584 69.9755 236.904 70H220.329ZM231.355 25.4206V61.1429H236.684C240.996 61.1429 244.291 59.7341 246.57 56.9165C248.849 54.0989 250.012 50.0685 250.061 44.8253V41.9954C250.061 36.5562 248.934 32.4401 246.68 29.647C244.426 26.8294 241.131 25.4206 236.794 25.4206H231.355ZM118.44 134V95.4728H131.935C136.61 95.4728 140.156 96.3725 142.572 98.1718C144.989 99.9535 146.198 102.573 146.198 106.031C146.198 107.918 145.712 109.585 144.742 111.032C143.772 112.461 142.422 113.51 140.694 114.181C142.669 114.675 144.222 115.671 145.351 117.171C146.497 118.67 147.071 120.505 147.071 122.675C147.071 126.379 145.889 129.184 143.525 131.089C141.161 132.994 137.792 133.965 133.417 134H118.44ZM126.378 117.224V127.623H133.179C135.049 127.623 136.504 127.182 137.545 126.3C138.603 125.4 139.132 124.165 139.132 122.595C139.132 119.067 137.307 117.277 133.655 117.224H126.378ZM126.378 111.614H132.253C136.257 111.543 138.259 109.947 138.259 106.825C138.259 105.078 137.748 103.826 136.724 103.067C135.719 102.291 134.122 101.903 131.935 101.903H126.378V111.614ZM184.698 115.61C184.698 119.402 184.028 122.728 182.687 125.585C181.347 128.443 179.424 130.648 176.919 132.201C174.431 133.753 171.574 134.529 168.345 134.529C165.152 134.529 162.303 133.762 159.798 132.227C157.293 130.692 155.353 128.505 153.977 125.665C152.601 122.807 151.904 119.526 151.887 115.821V113.916C151.887 110.123 152.566 106.789 153.924 103.914C155.3 101.021 157.232 98.8069 159.719 97.2721C162.224 95.7198 165.082 94.9436 168.292 94.9436C171.503 94.9436 174.352 95.7198 176.839 97.2721C179.344 98.8069 181.276 101.021 182.634 103.914C184.01 106.789 184.698 110.115 184.698 113.89V115.61ZM176.654 113.863C176.654 109.823 175.931 106.754 174.484 104.655C173.038 102.556 170.974 101.506 168.292 101.506C165.629 101.506 163.574 102.547 162.127 104.628C160.68 106.692 159.948 109.726 159.931 113.731V115.61C159.931 119.543 160.654 122.595 162.101 124.765C163.547 126.935 165.629 128.02 168.345 128.02C171.009 128.02 173.055 126.979 174.484 124.897C175.913 122.798 176.636 119.746 176.654 115.742V113.863ZM222.114 115.61C222.114 119.402 221.444 122.728 220.103 125.585C218.762 128.443 216.84 130.648 214.335 132.201C211.847 133.753 208.989 134.529 205.761 134.529C202.568 134.529 199.719 133.762 197.214 132.227C194.709 130.692 192.769 128.505 191.393 125.665C190.017 122.807 189.32 119.526 189.302 115.821V113.916C189.302 110.123 189.982 106.789 191.34 103.914C192.716 101.021 194.648 98.8069 197.135 97.2721C199.64 95.7198 202.498 94.9436 205.708 94.9436C208.919 94.9436 211.768 95.7198 214.255 97.2721C216.76 98.8069 218.692 101.021 220.05 103.914C221.426 106.789 222.114 110.115 222.114 113.89V115.61ZM214.07 113.863C214.07 109.823 213.347 106.754 211.9 104.655C210.454 102.556 208.39 101.506 205.708 101.506C203.045 101.506 200.989 102.547 199.543 104.628C198.096 106.692 197.364 109.726 197.347 113.731V115.61C197.347 119.543 198.07 122.595 199.516 124.765C200.963 126.935 203.045 128.02 205.761 128.02C208.425 128.02 210.471 126.979 211.9 124.897C213.329 122.798 214.052 119.746 214.07 115.742V113.863ZM239.949 118.547L235.821 122.992V134H227.883V95.4728H235.821V112.937L239.314 108.148L249.131 95.4728H258.895L245.215 112.593L259.292 134H249.845L239.949 118.547Z" fill="white"/>
</svg>
