<svg width="11" height="14" viewBox="0 0 11 14" fill="none" xmlns="http://www.w3.org/2000/svg">
<path d="M0.785714 12.4444C0.785714 13.3 1.49286 14 2.35714 14H8.64286C9.50714 14 10.2143 13.3 10.2143 12.4444V3.11111H0.785714V12.4444ZM3.27643 7.45889C3.12952 7.31346 3.04698 7.11622 3.04698 6.91056C3.04698 6.70489 3.12952 6.50765 3.27643 6.36222C3.42334 6.2168 3.62259 6.1351 3.83036 6.1351C4.03812 6.1351 4.23737 6.2168 4.38429 6.36222L5.5 7.45889L6.60786 6.36222C6.75477 6.2168 6.95402 6.1351 7.16179 6.1351C7.36955 6.1351 7.5688 6.2168 7.71571 6.36222C7.86262 6.50765 7.94516 6.70489 7.94516 6.91056C7.94516 7.11622 7.86262 7.31346 7.71571 7.45889L6.60786 8.55556L7.71571 9.65222C7.78846 9.72423 7.84616 9.80972 7.88553 9.9038C7.9249 9.99788 7.94516 10.0987 7.94516 10.2006C7.94516 10.3024 7.9249 10.4032 7.88553 10.4973C7.84616 10.5914 7.78846 10.6769 7.71571 10.7489C7.64297 10.8209 7.55661 10.878 7.46157 10.917C7.36653 10.956 7.26466 10.976 7.16179 10.976C7.05891 10.976 6.95704 10.956 6.862 10.917C6.76696 10.878 6.6806 10.8209 6.60786 10.7489L5.5 9.65222L4.39214 10.7489C4.3194 10.8209 4.23304 10.878 4.138 10.917C4.04296 10.956 3.94109 10.976 3.83821 10.976C3.73534 10.976 3.63347 10.956 3.53843 10.917C3.44339 10.878 3.35703 10.8209 3.28429 10.7489C3.21154 10.6769 3.15384 10.5914 3.11447 10.4973C3.0751 10.4032 3.05484 10.3024 3.05484 10.2006C3.05484 10.0987 3.0751 9.99788 3.11447 9.9038C3.15384 9.80972 3.21154 9.72423 3.28429 9.65222L4.39214 8.55556L3.27643 7.45889ZM10.2143 0.777778H8.25L7.69214 0.225556C7.55071 0.0855555 7.34643 0 7.14214 0H3.85786C3.65357 0 3.44929 0.0855555 3.30786 0.225556L2.75 0.777778H0.785714C0.353571 0.777778 0 1.12778 0 1.55556C0 1.98333 0.353571 2.33333 0.785714 2.33333H10.2143C10.6464 2.33333 11 1.98333 11 1.55556C11 1.12778 10.6464 0.777778 10.2143 0.777778Z" fill="white"/>
</svg>
