<svg width="14" height="14" viewBox="0 0 14 14" fill="none" xmlns="http://www.w3.org/2000/svg">
<path d="M13.9976 2.74503H13.995C13.995 2.87394 13.9441 2.99763 13.8533 3.0892C13.7626 3.18078 13.6394 3.23285 13.5105 3.2341V3.23454H0.489692V3.23432C0.360286 3.23375 0.236372 3.18196 0.14505 3.09026C0.0537271 2.99857 0.00242805 2.87445 0.00237179 2.74503H0.000216484V0.488643C0.000444412 0.358968 0.0521145 0.234681 0.143885 0.143068C0.235655 0.0514542 0.360023 -2.01502e-07 0.489692 0H13.5105C13.6403 5.71713e-05 13.7648 0.0516483 13.8566 0.143436C13.9484 0.235224 13.9999 0.359699 14 0.489506C14 0.49792 13.9978 0.505902 13.9974 0.514316L13.9976 2.74503Z" fill="black"/>
<path d="M0.489907 5.38284H13.5105C13.6403 5.3829 13.7648 5.43449 13.8566 5.52628C13.9484 5.61806 13.9999 5.74254 14 5.87235C14 5.88076 13.9978 5.88874 13.9974 5.89716V8.12787H13.9948C13.9948 8.25678 13.9439 8.38047 13.8531 8.47204C13.7624 8.56362 13.6392 8.61569 13.5103 8.61695V8.61738H0.489476V8.61716C0.36007 8.61659 0.236156 8.5648 0.144835 8.4731C0.0535116 8.38141 0.00221252 8.25729 0.00215626 8.12787H9.53674e-07V5.87148C0.000400543 5.74179 0.0521841 5.61753 0.14401 5.52594C0.235836 5.43436 0.360217 5.3829 0.489907 5.38284Z" fill="black"/>
<path d="M0.489907 10.7655H13.5105C13.6403 10.7655 13.7648 10.8171 13.8566 10.9089C13.9484 11.0007 13.9999 11.1252 14 11.255C14 11.2634 13.9978 11.2714 13.9974 11.2798V13.5105H13.9948C13.9948 13.6394 13.9439 13.7631 13.8531 13.8547C13.7624 13.9462 13.6392 13.9983 13.5103 13.9996V14H0.489476V13.9998C0.36005 13.9992 0.236137 13.9473 0.144821 13.8556C0.0535049 13.7639 0.00221252 13.6397 0.00215626 13.5103H9.53674e-07V11.2539C0.00045681 11.1242 0.0522652 11 0.144085 10.9085C0.235906 10.8169 0.360254 10.7655 0.489907 10.7655Z" fill="black"/>
</svg>
