<svg width="11" height="16" viewBox="0 0 11 16" fill="none" xmlns="http://www.w3.org/2000/svg">
<path d="M9.14286 6.85714V8.57143C9.14286 9.6323 8.72143 10.6497 7.97128 11.3999C7.22114 12.15 6.20372 12.5714 5.14286 12.5714C4.08199 12.5714 3.06458 12.15 2.31443 11.3999C1.56428 10.6497 1.14286 9.6323 1.14286 8.57143V6.85714H0V8.57143C0.00060027 9.83604 0.467117 11.0561 1.31041 11.9985C2.15371 12.9409 3.31465 13.5395 4.57143 13.68V14.8571H2.28571V16H8V14.8571H5.71429V13.68C6.97106 13.5395 8.13201 12.9409 8.9753 11.9985C9.8186 11.0561 10.2851 9.83604 10.2857 8.57143V6.85714H9.14286Z" fill="black"/>
<path d="M5.14285 11.4286C5.90061 11.4286 6.62734 11.1276 7.16315 10.5917C7.69897 10.0559 7.99999 9.32919 7.99999 8.57143V2.85714C7.99999 2.09938 7.69897 1.37266 7.16315 0.836838C6.62734 0.30102 5.90061 0 5.14285 0C4.38509 0 3.65836 0.30102 3.12254 0.836838C2.58673 1.37266 2.28571 2.09938 2.28571 2.85714V8.57143C2.28571 9.32919 2.58673 10.0559 3.12254 10.5917C3.65836 11.1276 4.38509 11.4286 5.14285 11.4286Z" fill="black"/>
</svg>
