<svg width="16" height="16" viewBox="0 0 16 16" fill="none" xmlns="http://www.w3.org/2000/svg">
<path d="M5 2V4.5C5 4.89782 5.15804 5.27936 5.43934 5.56066C5.72064 5.84196 6.10218 6 6.5 6H8.5C8.89782 6 9.27936 5.84196 9.56066 5.56066C9.84196 5.27936 10 4.89782 10 4.5V2H10.379C10.9094 2.00011 11.418 2.2109 11.793 2.586L13.414 4.207C13.7891 4.58199 13.9999 5.09061 14 5.621V12C14 12.5304 13.7893 13.0391 13.4142 13.4142C13.0391 13.7893 12.5304 14 12 14V9.5C12 9.10218 11.842 8.72064 11.5607 8.43934C11.2794 8.15804 10.8978 8 10.5 8H5.5C4.673 8 4 8.669 4 9.498V14C3.46957 14 2.96086 13.7893 2.58579 13.4142C2.21071 13.0391 2 12.5304 2 12V4C2 3.46957 2.21071 2.96086 2.58579 2.58579C2.96086 2.21071 3.46957 2 4 2H5ZM6 2V4.5C6 4.63261 6.05268 4.75979 6.14645 4.85355C6.24021 4.94732 6.36739 5 6.5 5H8.5C8.63261 5 8.75979 4.94732 8.85355 4.85355C8.94732 4.75979 9 4.63261 9 4.5V2H6ZM5 14H11V9.5C11 9.36739 10.9473 9.24021 10.8536 9.14645C10.7598 9.05268 10.6326 9 10.5 9H5.5C5.223 9 5 9.223 5 9.498V14Z" fill="white"/>
</svg>
