<svg width="36" height="36" viewBox="0 0 36 36" fill="#C4C4C4" xmlns="http://www.w3.org/2000/svg">
<path d="M25.1896 20.4C25.4768 19.6326 25.6225 18.8194 25.6196 18C25.6196 16.1806 24.8969 14.4358 23.6104 13.1493C22.3239 11.8628 20.579 11.14 18.7596 11.14C17.9503 11.141 17.1477 11.2866 16.3896 11.57L17.9996 13.23C18.2444 13.1909 18.4918 13.1708 18.7396 13.17C20.0261 13.1673 21.2613 13.6738 22.1756 14.5787C23.09 15.4837 23.6091 16.7136 23.6196 18C23.6188 18.2479 23.5988 18.4953 23.5596 18.74L25.1896 20.4Z" fill="#C4C4C4"/>
<path d="M34.2905 17.53C30.9205 11.3 25.0105 7.53 18.4705 7.53C16.6898 7.53418 14.9211 7.82108 13.2305 8.38L14.8405 10C16.0263 9.69353 17.2457 9.53565 18.4705 9.53C24.1005 9.53 29.2205 12.67 32.2705 17.96C31.1516 19.9226 29.6684 21.6536 27.9005 23.06L29.3205 24.48C31.3665 22.8293 33.0658 20.7902 34.3205 18.48L34.5805 18L34.2905 17.53Z" fill="#C4C4C4"/>
<path d="M4.86988 5.78001L9.32988 10.24C6.5108 12.0551 4.20678 14.5658 2.63988 17.53L2.37988 18L2.63988 18.48C6.00988 24.71 11.9199 28.48 18.4599 28.48C21.0125 28.4795 23.532 27.9018 25.8299 26.79L30.8299 31.79L32.5799 30.29L6.57988 4.29001L4.86988 5.78001ZM14.6199 15.53L21.2699 22.18C20.5185 22.6451 19.6535 22.8942 18.7699 22.9C18.1278 22.9 17.4921 22.7731 16.8993 22.5265C16.3064 22.2798 15.7682 21.9184 15.3156 21.463C14.863 21.0076 14.5049 20.4672 14.2619 19.8729C14.019 19.2786 13.8959 18.6421 13.8999 18C13.9112 17.1266 14.1601 16.2727 14.6199 15.53V15.53ZM13.1699 14.08C12.2343 15.3994 11.7958 17.0073 11.932 18.619C12.0682 20.2307 12.7703 21.7422 13.914 22.8859C15.0577 24.0296 16.5692 24.7317 18.1809 24.8679C19.7926 25.0041 21.4005 24.5656 22.7199 23.63L24.3199 25.23C22.4677 26.0217 20.4742 26.43 18.4599 26.43C12.8299 26.43 7.70988 23.29 4.65988 18C6.12359 15.4082 8.23161 13.2382 10.7799 11.7L13.1699 14.08Z" fill="#C4C4C4"/>
</svg>
