<svg width="12" height="13" viewBox="0 0 12 13" fill="none" xmlns="http://www.w3.org/2000/svg">
<path d="M2.20834 8.1873C2.7592 8.18566 3.28923 7.97653 3.69279 7.60158L7.63537 9.85439C7.50328 10.3706 7.56151 10.9171 7.79941 11.3938C8.03732 11.8706 8.43898 12.2457 8.93086 12.4506C9.42274 12.6554 9.97195 12.6762 10.4779 12.5092C10.9839 12.3422 11.4128 11.9986 11.6861 11.5412C11.9594 11.0838 12.0589 10.5433 11.9662 10.0186C11.8736 9.49384 11.5951 9.02005 11.1816 8.68391C10.7682 8.34777 10.2476 8.17178 9.715 8.18814C9.18242 8.2045 8.67356 8.41213 8.28155 8.77302L4.33897 6.5202C4.38054 6.36275 4.40321 6.19963 4.40699 6.03651L8.2803 3.82274C8.65325 4.16207 9.13156 4.3628 9.63497 4.39128C10.1384 4.41975 10.6363 4.27424 11.0451 3.97913C11.454 3.68403 11.7489 3.25731 11.8804 2.77054C12.0119 2.28378 11.972 1.76659 11.7674 1.30575C11.5628 0.844905 11.206 0.468445 10.7567 0.239525C10.3074 0.0106053 9.79313 -0.0568473 9.30003 0.0484836C8.80694 0.153814 8.36507 0.42552 8.04856 0.818018C7.73204 1.21052 7.56014 1.69993 7.56169 2.20414C7.56421 2.38553 7.58877 2.56628 7.63537 2.74137L4.05556 4.78635C3.84796 4.46518 3.56038 4.20355 3.22108 4.02716C2.88177 3.85077 2.50242 3.76568 2.12028 3.78026C1.73814 3.79484 1.36637 3.90859 1.04149 4.11032C0.716613 4.31205 0.449805 4.59484 0.267282 4.93088C0.0847592 5.26693 -0.00719992 5.64468 0.000440041 6.02702C0.00808001 6.40936 0.115056 6.78313 0.310858 7.11162C0.50666 7.44011 0.784551 7.712 1.11723 7.9006C1.44991 8.08919 1.82592 8.18799 2.20834 8.1873V8.1873Z" fill="white"/>
</svg>
