<svg width="10" height="9" viewBox="0 0 10 9" fill="#8348FF" xmlns="http://www.w3.org/2000/svg">
<path d="M5.57133 9C5.48461 8.99945 5.39985 8.96999 5.32704 8.91511L2.57138 6.71789H0.428563C0.314901 6.71789 0.205895 6.66528 0.125523 6.57163C0.0451522 6.47798 0 6.35096 0 6.21852V2.79286C0 2.66042 0.0451522 2.5334 0.125523 2.43975C0.205895 2.3461 0.314901 2.29349 0.428563 2.29349H2.57138L5.31847 0.0962717C5.38303 0.0412647 5.45951 0.00840495 5.53927 0.00140923C5.61902 -0.00558648 5.69886 0.0135609 5.76976 0.0566857C5.84066 0.0998106 5.89978 0.165192 5.94045 0.245435C5.98112 0.325678 6.00171 0.41758 5.99989 0.510747V8.50063C5.99989 8.63307 5.95474 8.76009 5.87437 8.85374C5.79399 8.94739 5.68499 9 5.57133 9Z" fill="#8348FF"/>
</svg>
