<svg width="48" height="61" viewBox="0 0 48 61" fill="none" xmlns="http://www.w3.org/2000/svg">
<rect width="47.8879" height="61" fill="white"/>
<path d="M31.0733 28.3551V31.4532C31.0733 33.3705 30.3116 35.2092 28.9559 36.5649C27.6002 37.9206 25.7615 38.6823 23.8442 38.6823C21.927 38.6823 20.0883 37.9206 18.7326 36.5649C17.3769 35.2092 16.6152 33.3705 16.6152 31.4532V28.3551H14.5498V31.4532C14.5509 33.7387 15.394 35.9437 16.918 37.6468C18.4421 39.3499 20.5402 40.4318 22.8115 40.6857V42.8131H18.6807V44.8785H29.0078V42.8131H24.877V40.6857C27.1483 40.4318 29.2464 39.3499 30.7704 37.6468C32.2945 35.9437 33.1376 33.7387 33.1387 31.4532V28.3551H31.0733Z" fill="#8348FF"/>
<path d="M23.8447 36.617C25.2142 36.617 26.5276 36.0729 27.4959 35.1046C28.4643 34.1362 29.0083 32.8228 29.0083 31.4534V21.1262C29.0083 19.7568 28.4643 18.4434 27.4959 17.475C26.5276 16.5067 25.2142 15.9626 23.8447 15.9626C22.4753 15.9626 21.1619 16.5067 20.1935 17.475C19.2252 18.4434 18.6812 19.7568 18.6812 21.1262V31.4534C18.6812 32.8228 19.2252 34.1362 20.1935 35.1046C21.1619 36.0729 22.4753 36.617 23.8447 36.617Z" fill="#8348FF"/>
<path d="M3.42041 0H10.8316V20.5234L7.12602 15.3925L3.42041 20.5234V0Z" fill="#8348FF"/>
</svg>
