<svg width="505" height="401" viewBox="0 0 505 401" fill="none" xmlns="http://www.w3.org/2000/svg">
<g clip-path="url(#clip0)">
<path opacity="0.1" d="M296.165 67.7671C264.211 66.6575 233.773 56.3559 204.713 45.0828C175.652 33.8096 146.868 21.3184 115.68 15.3465C95.6198 11.505 72.6764 10.9625 56.5169 21.7031C40.9597 32.059 35.9336 49.8859 33.2329 66.4455C31.1988 78.9021 30.0039 92.0098 35.5781 103.672C39.4439 111.77 46.3116 118.575 51.0563 126.357C67.5812 153.341 55.9047 186.618 37.9973 212.967C29.604 225.33 19.853 237.13 13.3753 250.277C6.8977 263.424 3.89586 278.51 9.5638 291.933C15.1873 305.247 28.582 315.229 43.0876 322.256C72.558 336.532 107.272 340.615 141.146 342.928C216.108 348.052 291.465 345.833 366.624 343.614C394.441 342.79 422.376 341.957 449.738 337.661C464.935 335.275 480.62 331.492 491.655 322.35C505.657 310.746 509.128 291.094 499.747 276.547C484.002 252.141 440.5 246.081 429.48 219.885C423.427 205.471 429.648 189.414 438.446 176.04C457.326 147.36 488.969 122.195 490.638 89.4109C491.783 66.8893 476.567 44.343 453.046 33.6863C428.394 22.4773 394.199 23.8975 376.02 42.3853C357.288 61.4352 324.377 68.7435 296.165 67.7671Z" fill="#8348FF"/>
<path d="M214.992 340.512L46.0005 339.688L29.209 300.35L88.5842 296.045L78.2357 252.916L195.673 237.712L83.2174 198.665L93.1511 196.308L273.977 225.773L264.019 293.082L249.785 330.072L214.992 340.512Z" fill="#8348FF"/>
<path d="M48.5923 323.212C48.5923 323.212 58.9605 321.556 65.1814 328.874C65.1814 328.874 60.6194 332.464 50.8042 327.493L48.5923 323.212Z" fill="#8348FF"/>
<path d="M47.5061 323.05C47.5061 323.05 40.8903 331.182 44.1488 340.236C44.1488 340.236 49.5403 338.081 50.1278 327.103L47.5061 323.05Z" fill="#8348FF"/>
<path d="M41.5615 309.681C41.5615 309.681 45.7088 302.081 62.2979 312.718C62.2979 312.718 60.086 317.827 52.7592 317.413C45.4323 316.999 43.4969 313.685 41.5615 309.681Z" fill="#8348FF"/>
<path d="M40.4903 309.133C40.4903 309.133 31.8847 308.147 31.0503 327.823C31.0503 327.823 36.5059 328.953 40.3816 322.729C44.2574 316.506 42.6676 313.014 40.4903 309.133Z" fill="#8348FF"/>
<path d="M35.479 293.437C35.479 293.437 40.3175 280.043 57.8743 289.571C57.8743 289.571 53.8653 301.86 37.2762 297.993L35.479 293.437Z" fill="#8348FF"/>
<path d="M30.0879 273.415C30.0879 273.415 39.2119 259.884 55.3863 272.429C55.3863 272.429 49.7183 285.132 31.4703 278.228L30.0879 273.415Z" fill="#8348FF"/>
<path d="M28.1519 254.361C28.1519 254.361 38.7965 241.929 54.8129 254.361C54.8129 254.361 44.7212 265.269 28.1519 257.537V254.361Z" fill="#8348FF"/>
<path d="M26.4937 235.853C26.4937 235.853 37.2766 222.874 52.6215 235.163C52.6215 235.163 40.4561 246.623 26.4937 238.891V235.853Z" fill="#8348FF"/>
<path d="M27.4609 219.422C27.4609 219.422 38.8166 202.714 53.1741 214.037C53.1741 214.037 41.0087 228.397 27.4609 222.597V219.422Z" fill="#8348FF"/>
<path d="M30.0879 200.229C30.0879 200.229 42.115 183.659 56.0775 196.362C56.0775 196.362 41.8385 210.723 30.0879 203.266V200.229Z" fill="#8348FF"/>
<path d="M34.0967 183.072C34.0967 183.072 48.3357 167.499 60.7578 173.703C60.7578 173.703 45.9214 190.243 33.4746 187.205L34.0967 183.072Z" fill="#8348FF"/>
<path d="M39.0734 166.809C39.0734 166.809 55.5045 147.734 65.063 154.106C65.063 154.106 52.9569 168.9 37.9082 170.379L39.0734 166.809Z" fill="#8348FF"/>
<path d="M46.2566 147.946C46.2566 147.946 60.6388 132.373 71.1452 136.239C71.1452 136.239 58.8416 152.394 44.3262 152.808L46.2566 147.946Z" fill="#8348FF"/>
<path d="M52.7596 130.302C52.7596 130.302 68.6575 115.389 75.5696 118.013C75.5696 118.013 64.0955 134.582 52.0684 133.616L52.7596 130.302Z" fill="#8348FF"/>
<path d="M59.1187 114.009C59.1187 114.009 72.8046 96.1916 80.2747 97.5724C80.2747 97.5724 71.9752 113.456 59.1187 115.819V114.009Z" fill="#8348FF"/>
<path d="M66.0206 92.0394C66.0206 92.0394 78.1169 78.3844 84.6538 78.414C84.6538 78.414 75.1051 96.6601 65.522 96.4924L66.0206 92.0394Z" fill="#8348FF"/>
<path d="M70.1087 77.4127L81.7951 48.9685C81.7951 48.9685 82.3777 74.6807 68.6226 82.6893L70.1087 77.4127Z" fill="#8348FF"/>
<path d="M74.8534 46.0441C74.8534 46.0441 76.7888 22.2897 75.5446 20.3566C75.5446 20.3566 83.8984 40.1067 74.7744 56.5381L74.8534 46.0441Z" fill="#8348FF"/>
<path d="M35.0247 293.121C35.0247 293.121 22.9087 285.62 15.0635 303.97C15.0635 303.97 25.8464 311.121 36.4516 297.801L35.0247 293.121Z" fill="#8348FF"/>
<path d="M29.6974 272.651C29.6974 272.651 14.8363 265.88 7.62793 285.039C7.62793 285.039 19.107 292.929 31.0502 277.494L29.6974 272.651Z" fill="#8348FF"/>
<path d="M27.4609 255.5C27.4609 255.5 16.8162 243.068 0.799805 255.5C0.799805 255.5 10.8915 266.408 27.4609 258.675V255.5Z" fill="#8348FF"/>
<path d="M26.1278 235.853C26.1278 235.853 15.3449 222.874 0 235.163C0 235.163 12.1653 246.623 26.1278 238.891V235.853Z" fill="#8348FF"/>
<path d="M27.4609 219.895C27.4609 219.895 19.897 201.18 3.45605 209.228C3.45605 209.228 12.3431 225.823 26.7894 223.002L27.4609 219.895Z" fill="#8348FF"/>
<path d="M31.0401 200.135C31.0401 200.135 23.5207 181.095 6.84766 189.922C6.84766 189.922 17.0579 207.374 30.2995 203.074L31.0401 200.135Z" fill="#8348FF"/>
<path d="M35.7007 183.166C35.7007 183.166 32.7383 162.292 18.9141 160.423C18.9141 160.423 21.8468 182.436 33.8393 186.929L35.7007 183.166Z" fill="#8348FF"/>
<path d="M39.4239 166.848C39.4239 166.848 38.2686 141.698 26.8389 140.821C26.8389 140.821 27.224 159.91 38.1353 170.409L39.4239 166.848Z" fill="#8348FF"/>
<path d="M47.4415 147.241C47.4415 147.241 44.0348 126.327 33.1235 123.773C33.1235 123.773 34.4763 144.026 46.3603 152.375L47.4415 147.241Z" fill="#8348FF"/>
<path d="M54.0527 130.475C54.0527 130.475 53.9391 108.688 47.2738 105.487C47.2738 105.487 43.1414 125.213 52.1222 133.256L54.0527 130.475Z" fill="#8348FF"/>
<path d="M59.6272 113.762C59.6272 113.762 58.6941 91.3291 51.7918 88.1681C51.7918 88.1681 49.4318 105.921 58.5953 115.231L59.6272 113.762Z" fill="#8348FF"/>
<path d="M66.984 93.8294C66.984 93.8294 66.9445 75.5833 62.0172 71.3029C62.0172 71.3029 57.1194 91.2897 64.4117 97.4984L66.984 93.8294Z" fill="#8348FF"/>
<path d="M69.5311 76.5151L64.737 46.1477C64.737 46.1477 58.2248 71.0314 69.7582 81.9988L69.5311 76.5151Z" fill="#8348FF"/>
<path d="M70.4643 46.3303C70.4643 46.3303 58.1607 25.9144 58.4125 23.646C58.4125 23.646 59.7209 45.0432 75.1991 55.7L70.4643 46.3303Z" fill="#8348FF"/>
<path d="M71.9061 40.2993C71.9061 40.2993 60.2937 11.3028 55.0405 8.95544C55.0405 8.95544 71.6296 17.3782 72.8738 39.4708L71.9061 40.2993Z" fill="#8348FF"/>
<path d="M65.4629 96.6648L64.668 96.4232C74.4684 64.5023 76.9123 44.1506 71.5554 39.0466L72.1232 38.4449C77.8059 43.83 75.5003 63.9599 65.4629 96.6648Z" fill="#444053"/>
<path d="M38.4758 171.405L37.3008 170.986C38.3425 168.061 39.4633 165.093 40.6383 162.168C50.8683 136.703 59.5776 113.012 65.1616 94.8254L66.1836 94.3323C60.5897 112.554 52.0335 137.151 41.7937 162.652C40.6235 165.522 39.5077 168.476 38.4758 171.405Z" fill="#444053"/>
<path d="M63.2014 347.1C63.0434 346.927 47.1603 329.061 36.0861 298.56C29.5973 280.704 25.9861 261.932 25.3871 242.944C24.6268 219.21 29.6134 192.708 38.1548 168.633L39.083 169.718C19.9068 223.751 27.525 270.052 37.6315 297.934C48.5872 328.159 64.2925 345.828 64.4456 346.005L63.2014 347.1Z" fill="#444053"/>
<path d="M311.406 309.168C311.406 309.168 300.214 322.813 309.101 343.441L219.737 382.152L211.161 383.947L207.211 366.688L209.852 344.906V333.001L311.406 309.168Z" fill="#D5D6DB"/>
<path d="M29.209 300.351L152.897 277.829L316.788 303.906L214.992 340.512L29.209 300.351Z" fill="#8348FF"/>
<path d="M29.209 300.351L152.897 277.829L316.788 303.906L214.992 340.512L29.209 300.351Z" fill="#8348FF"/>
<path d="M29.2086 300.346C29.2086 300.346 17.6406 322.236 30.9711 342.455L214.389 382.152C214.389 382.152 203.004 364.715 214.977 340.512L29.2086 300.346Z" fill="#8348FF"/>
<path opacity="0.1" d="M29.2086 300.346C29.2086 300.346 17.6406 322.236 30.9711 342.455L214.389 382.152C214.389 382.152 203.004 364.715 214.977 340.512L29.2086 300.346Z" fill="black"/>
<path opacity="0.1" d="M34.6745 307.935C34.6745 307.935 28.0636 323.952 34.6745 334.318V307.935Z" fill="black"/>
<path d="M214.389 382.152L316.788 338.51C316.788 338.51 322.515 339.742 318.812 343.934C315.109 348.126 216.364 386.344 216.364 386.344L30.9712 342.455L214.389 382.152Z" fill="#8348FF"/>
<path opacity="0.1" d="M214.389 382.152L316.788 338.51C316.788 338.51 322.515 339.742 318.812 343.934C315.109 348.126 216.364 386.344 216.364 386.344L30.9712 342.455L214.389 382.152Z" fill="black"/>
<path opacity="0.1" d="M205.996 344.92C205.996 344.92 196.122 356.756 205.996 374.509V344.92Z" fill="black"/>
<path opacity="0.1" d="M253.802 344.72L209.511 359.479L209.667 359.947L253.958 345.188L253.802 344.72Z" fill="black"/>
<path opacity="0.1" d="M262.673 343.251L209.497 363.449L209.672 363.91L262.849 343.712L262.673 343.251Z" fill="black"/>
<path opacity="0.1" d="M270.821 343.181L209.793 368.13L209.98 368.587L271.008 343.637L270.821 343.181Z" fill="black"/>
<path opacity="0.1" d="M279.68 341.044L210.506 372.255L210.709 372.705L279.884 341.494L279.68 341.044Z" fill="black"/>
<path opacity="0.1" d="M287.123 341.054L211.053 374.265L211.251 374.717L287.321 341.506L287.123 341.054Z" fill="black"/>
<path opacity="0.1" d="M303.404 338.293L212.2 377.638L212.396 378.09L303.6 338.745L303.404 338.293Z" fill="black"/>
<path opacity="0.3" d="M75.1597 302.757L162.055 284.511L214.992 294.62L143.787 317.551L75.1597 302.757Z" fill="white"/>
<path d="M316.788 303.906C316.788 303.906 321.281 305.716 318.644 308.512C316.008 311.308 214.977 340.512 214.977 340.512L316.788 303.906Z" fill="#8348FF"/>
<path d="M360.428 261.738C360.428 261.738 349.24 275.378 358.127 296.011L268.763 334.722L260.187 336.527L256.237 319.267L258.918 297.49V285.571L360.428 261.738Z" fill="#D5D6DB"/>
<path d="M78.2354 252.915L201.918 230.399L365.814 256.476L264.018 293.082L78.2354 252.915Z" fill="#3A3768"/>
<path d="M78.2159 252.916C78.2159 252.916 66.643 274.806 79.9736 295.025L263.392 334.722C263.392 334.722 252.011 317.27 263.999 293.077L78.2159 252.916Z" fill="#3A3768"/>
<path opacity="0.1" d="M78.2159 252.916C78.2159 252.916 66.643 274.806 79.9736 295.025L263.392 334.722C263.392 334.722 252.011 317.27 263.999 293.077L205.996 280.536L78.2159 252.916Z" fill="black"/>
<path opacity="0.1" d="M83.6958 260.505C83.6958 260.505 77.0898 276.517 83.6958 286.888V260.505Z" fill="black"/>
<path d="M263.411 334.722L365.815 291.08C365.815 291.08 371.537 292.312 367.834 296.504C364.131 300.696 265.386 338.914 265.386 338.914L79.9932 295.025L263.411 334.722Z" fill="#3A3768"/>
<path opacity="0.1" d="M263.411 334.722L365.815 291.08C365.815 291.08 371.537 292.312 367.834 296.504C364.131 300.696 265.386 338.914 265.386 338.914L79.9932 295.025L263.411 334.722Z" fill="black"/>
<path opacity="0.1" d="M255.018 297.49C255.018 297.49 245.144 309.326 255.018 327.079V297.49Z" fill="black"/>
<path opacity="0.1" d="M302.827 297.295L258.536 312.055L258.692 312.522L302.983 297.763L302.827 297.295Z" fill="black"/>
<path opacity="0.1" d="M311.705 295.824L258.528 316.022L258.704 316.483L311.881 296.285L311.705 295.824Z" fill="black"/>
<path opacity="0.1" d="M319.845 295.747L258.817 320.697L259.004 321.153L320.032 296.203L319.845 295.747Z" fill="black"/>
<path opacity="0.1" d="M328.711 293.611L259.536 324.822L259.739 325.272L328.914 294.061L328.711 293.611Z" fill="black"/>
<path opacity="0.1" d="M336.146 293.615L260.076 326.826L260.274 327.278L336.344 294.067L336.146 293.615Z" fill="black"/>
<path opacity="0.1" d="M352.431 290.853L261.228 330.199L261.423 330.651L352.627 291.306L352.431 290.853Z" fill="black"/>
<path opacity="0.45" d="M124.187 255.327L211.082 237.081L264.019 247.19L192.814 270.121L124.187 255.327Z" fill="white"/>
<path d="M365.814 256.476C365.814 256.476 370.302 258.286 367.671 261.077C365.039 263.868 264.019 293.077 264.019 293.077L365.814 256.476Z" fill="#3A3768"/>
<path d="M365.069 207.478C365.069 207.478 353.876 231.972 362.763 252.6L273.4 280.462L264.843 282.272L260.894 265.012L263.535 243.23V231.311L365.069 207.478Z" fill="#D5D6DB"/>
<path d="M82.8916 198.661L206.579 176.139L370.476 202.216L268.675 238.822L82.8916 198.661Z" fill="#8348FF"/>
<path d="M82.8908 198.656C82.8908 198.656 71.3031 220.546 84.6336 240.765L268.052 280.463C268.052 280.463 256.667 263.01 268.654 238.822L82.8908 198.656Z" fill="#8348FF"/>
<path opacity="0.1" d="M82.8908 198.656C82.8908 198.656 71.3031 220.546 84.6336 240.765L268.052 280.463C268.052 280.463 256.667 263.01 268.654 238.822L82.8908 198.656Z" fill="black"/>
<path opacity="0.1" d="M88.3572 206.245C88.3572 206.245 81.7462 222.262 88.3572 232.628V206.245Z" fill="black"/>
<path d="M268.072 280.462L370.47 247.669C370.47 247.669 376.197 248.901 372.494 253.093C368.792 257.285 270.047 284.654 270.047 284.654L84.6538 240.765L268.072 280.462Z" fill="#8348FF"/>
<path opacity="0.1" d="M268.072 280.462L370.47 247.669C370.47 247.669 376.197 248.901 372.494 253.093C368.792 257.285 270.047 284.654 270.047 284.654L84.6538 240.765L268.072 280.462Z" fill="black"/>
<path opacity="0.1" d="M259.679 243.23C259.679 243.23 249.804 255.066 259.679 272.819V243.23Z" fill="black"/>
<path opacity="0.1" d="M307.49 243.035L263.198 257.794L263.354 258.262L307.646 243.503L307.49 243.035Z" fill="black"/>
<path opacity="0.1" d="M316.364 241.566L263.188 261.763L263.363 262.224L316.54 242.027L316.364 241.566Z" fill="black"/>
<path opacity="0.1" d="M324.5 241.491L263.472 266.44L263.659 266.897L324.687 241.947L324.5 241.491Z" fill="black"/>
<path opacity="0.1" d="M333.372 239.351L264.197 270.562L264.401 271.011L333.575 239.8L333.372 239.351Z" fill="black"/>
<path opacity="0.1" d="M340.81 239.36L264.74 272.57L264.938 273.022L341.008 239.812L340.81 239.36Z" fill="black"/>
<path opacity="0.1" d="M357.093 236.601L265.89 275.946L266.085 276.399L357.289 237.054L357.093 236.601Z" fill="black"/>
<path opacity="0.3" d="M128.842 201.067L215.737 182.821L268.674 192.93L197.469 215.861L128.842 201.067Z" fill="white"/>
<path d="M370.47 202.216C370.47 202.216 374.963 204.026 372.327 206.822C369.69 209.618 268.674 238.822 268.674 238.822L370.47 202.216Z" fill="#8348FF"/>
<path d="M153.262 52.519C153.262 52.519 134.5 51.3897 136.692 64.5368C136.692 64.5368 136.253 66.8595 138.361 67.9148C138.361 67.9148 138.396 66.9285 140.287 67.2688C140.961 67.3846 141.648 67.4177 142.331 67.3674C143.251 67.3045 144.126 66.9445 144.824 66.3417C144.824 66.3417 150.102 64.162 152.156 55.542C152.156 55.542 153.676 53.6631 153.637 53.1798L150.457 54.531C150.457 54.531 151.539 56.8143 150.689 58.7128C150.689 58.7128 150.586 54.6149 149.973 54.7086C149.85 54.7086 148.329 55.5025 148.329 55.5025C148.329 55.5025 150.191 59.4821 148.784 62.3719C148.784 62.3719 149.317 57.4701 147.747 55.7885L145.515 57.0904C145.515 57.0904 147.692 61.1983 146.216 64.5516C146.216 64.5516 146.596 59.4082 145.046 57.406L143.022 58.9841C143.022 58.9841 145.071 63.0327 143.822 65.814C143.822 65.814 143.659 59.8273 142.587 59.3736C142.587 59.3736 140.815 60.932 140.548 61.573C140.548 61.573 141.95 64.5319 141.077 66.0655C141.077 66.0655 140.548 62.076 140.089 62.0563C140.089 62.0563 138.327 64.6995 138.144 66.4945C138.229 64.8211 138.752 63.1991 139.66 61.79C138.644 61.982 137.707 62.4672 136.964 63.1856C136.964 63.1856 137.235 61.3166 140.099 61.1539C140.099 61.1539 141.555 59.1468 141.946 59.0284C141.946 59.0284 139.097 58.7868 137.374 59.5512C137.374 59.5512 138.894 57.7907 142.464 58.5649L144.439 56.9375C144.439 56.9375 140.696 56.4444 139.107 56.9918C139.107 56.9918 140.938 55.4335 144.977 56.5677L147.154 55.2707C147.154 55.2707 143.96 54.5853 142.059 54.8318C142.059 54.8318 144.064 53.7519 147.791 54.9206L149.342 54.2253C149.342 54.2253 147.006 53.7667 146.32 53.6927C145.634 53.6187 145.599 53.4313 145.599 53.4313C147.081 53.1882 148.602 53.3588 149.993 53.9245C149.993 53.9245 153.326 52.7261 153.262 52.519Z" fill="#8348FF"/>
<path opacity="0.1" d="M417.206 106.557C417.206 106.557 398.445 105.428 400.637 118.575C400.637 118.575 400.197 120.898 402.305 121.953C402.305 121.953 402.34 120.967 404.231 121.307C404.906 121.42 405.592 121.453 406.275 121.406C407.187 121.338 408.053 120.979 408.744 120.38C408.744 120.38 414.026 118.2 416.075 109.58C416.075 109.58 417.596 107.701 417.557 107.218L414.387 108.569C414.387 108.569 415.468 110.852 414.619 112.751C414.619 112.751 414.515 108.653 413.908 108.747C413.784 108.747 412.259 109.541 412.259 109.541C412.259 109.541 414.12 113.52 412.718 116.41C412.718 116.41 413.251 111.508 411.676 109.827L409.445 111.129C409.445 111.129 411.622 115.236 410.146 118.59C410.146 118.59 410.526 113.446 408.976 111.444L406.956 113.022C406.956 113.022 409 117.071 407.751 119.852C407.751 119.852 407.588 113.866 406.517 113.412C406.517 113.412 404.749 114.97 404.478 115.611C404.478 115.611 405.88 118.57 405.011 120.104C405.011 120.104 404.478 116.114 404.024 116.095C404.024 116.095 402.261 118.738 402.078 120.533C402.164 118.859 402.688 117.236 403.599 115.828C402.582 116.021 401.643 116.506 400.898 117.224C400.898 117.224 401.175 115.355 404.033 115.192C404.033 115.192 405.49 113.185 405.88 113.062C405.88 113.062 403.036 112.825 401.308 113.589C401.308 113.589 402.829 111.829 406.398 112.603L408.373 110.976C408.373 110.976 404.626 110.483 403.041 111.03C403.041 111.03 404.868 109.472 408.911 110.606L411.084 109.309C411.084 109.309 407.889 108.623 405.989 108.87C405.989 108.87 407.993 107.79 411.721 108.959L413.276 108.263C413.276 108.263 410.936 107.805 410.249 107.731C409.563 107.657 409.529 107.47 409.529 107.47C411.011 107.223 412.532 107.394 413.923 107.963C413.923 107.963 417.265 106.764 417.206 106.557Z" fill="#8348FF"/>
<path opacity="0.1" d="M184.86 133.739C184.86 133.739 176.684 116.81 166.276 125.153C166.276 125.153 164.029 125.903 164.138 128.255C164.138 128.255 165.002 127.807 165.619 129.621C165.85 130.263 166.155 130.875 166.528 131.446C167.033 132.22 167.776 132.808 168.646 133.123C168.646 133.123 173.124 136.663 181.66 134.247C181.66 134.247 184.045 134.656 184.435 134.37L181.71 132.265C181.71 132.265 180.229 134.321 178.165 134.503C178.165 134.503 181.7 132.417 181.32 131.934C181.241 131.835 179.839 130.884 179.839 130.884C179.839 130.884 177.266 134.449 174.057 134.632C174.057 134.632 178.599 132.708 179.3 130.514L177.079 129.202C177.079 129.202 174.546 133.108 170.897 133.453C170.897 133.453 175.578 131.278 176.57 128.951L174.21 127.964C174.21 127.964 171.667 131.722 168.626 131.993C168.626 131.993 173.781 128.931 173.652 127.772C173.652 127.772 171.425 126.993 170.734 127.067C170.734 127.067 168.848 129.725 167.071 129.725C167.071 129.725 170.295 127.313 170.097 126.924C170.097 126.924 166.928 126.677 165.259 127.417C166.763 126.67 168.436 126.33 170.112 126.431C169.447 125.639 168.565 125.058 167.574 124.759C167.574 124.759 169.342 124.088 170.877 126.5C170.877 126.5 173.346 126.791 173.637 127.072C173.637 127.072 172.457 124.478 170.951 123.349C170.951 123.349 173.232 123.807 174.274 127.294L176.669 128.241C176.669 128.241 175.291 124.729 174.022 123.62C174.022 123.62 176.274 124.453 177.256 128.551L179.448 129.814C179.448 129.814 178.496 126.692 177.35 125.158C177.35 125.158 179.271 126.381 180.066 130.198L181.433 131.214C181.433 131.214 180.693 128.951 180.446 128.319C180.199 127.688 180.322 127.56 180.322 127.56C181.262 128.731 181.856 130.139 182.041 131.628C182.041 131.628 184.682 133.887 184.86 133.739Z" fill="#8348FF"/>
<path opacity="0.1" d="M374.341 82.64C374.341 82.64 366.17 65.7106 355.758 74.0545C355.758 74.0545 353.516 74.804 353.62 77.1563C353.62 77.1563 354.489 76.7125 355.101 78.5223C355.331 79.1664 355.638 79.7807 356.014 80.3518C356.518 81.1241 357.26 81.711 358.127 82.0236C358.127 82.0236 362.61 85.5643 371.142 83.1529C371.142 83.1529 373.527 83.5572 373.922 83.2712L371.211 81.1606C371.211 81.1606 369.73 83.2219 367.671 83.4044C367.671 83.4044 371.201 81.3135 370.821 80.8302C370.742 80.7316 369.34 79.7798 369.34 79.7798C369.34 79.7798 366.772 83.3452 363.558 83.5277C363.558 83.5277 368.106 81.6044 368.807 79.4149L366.55 78.113C366.55 78.113 364.022 82.0137 360.369 82.3639C360.369 82.3639 365.049 80.1842 366.047 77.8566L363.682 76.8703C363.682 76.8703 361.139 80.6329 358.103 80.8992C358.103 80.8992 363.252 77.8368 363.124 76.6829C363.124 76.6829 360.902 75.8988 360.211 75.9777C360.211 75.9777 358.325 78.6308 356.543 78.6308C356.543 78.6308 359.771 76.2193 359.574 75.8298C359.574 75.8298 356.404 75.5832 354.731 76.3229C356.234 75.5762 357.908 75.2361 359.584 75.3366C358.921 74.5441 358.041 73.9629 357.051 73.6649C357.051 73.6649 358.819 72.9942 360.354 75.4057C360.354 75.4057 362.823 75.7016 363.114 75.9826C363.114 75.9826 361.934 73.3838 360.423 72.2545C360.423 72.2545 362.704 72.7181 363.746 76.2243L366.145 77.1711C366.145 77.1711 364.768 73.655 363.499 72.5455C363.499 72.5455 365.75 73.3789 366.728 77.4768L368.925 78.7393C368.925 78.7393 367.967 75.6226 366.822 74.0841C366.822 74.0841 368.747 75.307 369.537 79.1239L370.905 80.1398C370.905 80.1398 370.169 77.8763 369.917 77.2451C369.666 76.6139 369.794 76.4906 369.794 76.4906C370.731 77.6625 371.324 79.0707 371.507 80.559C371.507 80.559 374.188 82.7978 374.341 82.64Z" fill="#8348FF"/>
<path opacity="0.1" d="M400.454 166.38C400.454 166.38 392.283 149.446 381.855 157.789C381.855 157.789 379.614 158.539 379.717 160.891C379.717 160.891 380.586 160.447 381.199 162.257C381.427 162.901 381.732 163.515 382.107 164.087C382.61 164.859 383.352 165.446 384.22 165.759C384.22 165.759 388.703 169.304 397.24 166.888C397.24 166.888 399.62 167.297 400.015 167.006L397.289 164.901C397.289 164.901 395.808 166.962 393.744 167.144C393.744 167.144 397.274 165.053 396.894 164.57C396.815 164.471 395.413 163.52 395.413 163.52C395.413 163.52 392.846 167.085 389.631 167.273C389.631 167.273 394.179 165.344 394.88 163.155L392.653 161.843C392.653 161.843 390.125 165.749 386.472 166.094C386.472 166.094 391.152 163.914 392.149 161.587L389.784 160.6C389.784 160.6 387.242 164.358 384.205 164.629C384.205 164.629 389.36 161.567 389.231 160.408C389.231 160.408 387.005 159.624 386.314 159.703C386.314 159.703 384.428 162.356 382.645 162.356C382.645 162.356 385.874 159.944 385.677 159.555C385.677 159.555 382.507 159.308 380.833 160.048C382.339 159.302 384.014 158.962 385.691 159.062C385.028 158.268 384.145 157.687 383.154 157.39C383.154 157.39 384.921 156.714 386.457 159.131C386.457 159.131 388.925 159.422 389.217 159.703C389.217 159.703 388.037 157.109 386.531 155.975C386.531 155.975 388.812 156.438 389.854 159.944L392.248 160.891C392.248 160.891 390.871 157.375 389.602 156.271C389.602 156.271 391.853 157.099 392.831 161.202L395.028 162.459C395.028 162.459 394.07 159.343 392.925 157.804C392.925 157.804 394.85 159.027 395.645 162.849L397.013 163.835C397.013 163.835 396.272 161.572 396.025 160.941C395.778 160.309 395.902 160.186 395.902 160.186C396.841 161.357 397.434 162.766 397.615 164.254C397.615 164.254 400.301 166.528 400.454 166.38Z" fill="#8348FF"/>
<path opacity="0.1" d="M99.7076 386.699C105.976 386.699 111.058 386.132 111.058 385.432C111.058 384.732 105.976 384.164 99.7076 384.164C93.4388 384.164 88.3569 384.732 88.3569 385.432C88.3569 386.132 93.4388 386.699 99.7076 386.699Z" fill="#8348FF"/>
<path opacity="0.1" d="M25.298 365.159C31.5668 365.159 36.6487 364.591 36.6487 363.891C36.6487 363.191 31.5668 362.624 25.298 362.624C19.0291 362.624 13.9473 363.191 13.9473 363.891C13.9473 364.591 19.0291 365.159 25.298 365.159Z" fill="#8348FF"/>
<path opacity="0.1" d="M156.426 401.005C162.695 401.005 167.777 400.437 167.777 399.738C167.777 399.038 162.695 398.47 156.426 398.47C150.158 398.47 145.076 399.038 145.076 399.738C145.076 400.437 150.158 401.005 156.426 401.005Z" fill="#8348FF"/>
<path opacity="0.1" d="M447.081 369.844C453.35 369.844 458.432 369.276 458.432 368.576C458.432 367.876 453.35 367.309 447.081 367.309C440.812 367.309 435.73 367.876 435.73 368.576C435.73 369.276 440.812 369.844 447.081 369.844Z" fill="#8348FF"/>
<path opacity="0.1" d="M352.627 363.694C358.896 363.694 363.978 363.127 363.978 362.427C363.978 361.727 358.896 361.159 352.627 361.159C346.358 361.159 341.276 361.727 341.276 362.427C341.276 363.127 346.358 363.694 352.627 363.694Z" fill="#8348FF"/>
<path opacity="0.1" d="M291.524 393.687C298.938 393.687 304.948 392.656 304.948 391.384C304.948 390.112 298.938 389.081 291.524 389.081C284.11 389.081 278.1 390.112 278.1 391.384C278.1 392.656 284.11 393.687 291.524 393.687Z" fill="#8348FF"/>
<path d="M297.513 368.236C297.513 368.236 278.821 377.882 288.478 389.243C288.478 389.243 289.386 391.709 292.013 391.537C292.013 391.537 291.49 390.58 293.494 389.815C294.207 389.54 294.885 389.181 295.513 388.745C296.362 388.159 296.997 387.313 297.32 386.334C297.32 386.334 301.142 381.225 298.18 371.772C298.18 371.772 298.565 369.099 298.229 368.665L295.958 371.777C295.958 371.777 298.303 373.35 298.574 375.662C298.574 375.662 296.106 371.781 295.612 372.211C295.504 372.299 294.486 373.912 294.486 373.912C294.486 373.912 298.555 376.668 298.856 380.249C298.856 380.249 296.565 375.233 294.091 374.518L292.674 377.043C292.674 377.043 297.118 379.746 297.612 383.809C297.612 383.809 295.03 378.656 292.393 377.615L291.351 380.283C291.351 380.283 295.637 383.005 296.032 386.388C296.032 386.388 292.447 380.732 291.159 380.909C291.159 380.909 290.349 383.415 290.458 384.189C290.458 384.189 293.484 386.211 293.538 388.198C293.538 388.198 290.744 384.672 290.314 384.904C290.314 384.904 290.137 388.449 290.996 390.294C290.996 390.294 289.515 387.66 289.757 384.904C288.891 385.669 288.268 386.67 287.964 387.784C287.964 387.784 287.16 385.836 289.811 384.041C289.811 384.041 290.063 381.284 290.369 380.944C290.369 380.944 287.5 382.344 286.281 384.061C286.281 384.061 286.73 381.501 290.621 380.229L291.608 377.527C291.608 377.527 287.718 379.174 286.518 380.623C286.518 380.623 287.382 378.084 291.914 376.866L293.257 374.4C293.257 374.4 289.801 375.564 288.112 376.866C288.112 376.866 289.421 374.681 293.672 373.675L294.763 372.122C294.763 372.122 292.255 373.014 291.554 373.335C290.853 373.655 290.714 373.498 290.714 373.498C291.996 372.415 293.553 371.708 295.212 371.456C295.212 371.456 297.686 368.404 297.513 368.236Z" fill="#8348FF"/>
<path d="M352.992 186.056C349.763 177.293 331.989 176.469 324.277 178.703C318.797 180.296 307.244 182.091 301.072 182.994L300.672 182.614C301.472 182.377 301.492 181.795 301.393 180.932C301.335 179.795 301.352 178.655 301.442 177.52C305.224 178.694 308.591 175.917 308.591 175.917C313.035 173.945 311.84 165.502 312.689 163.194C313.326 161.468 314.013 151.3 314.319 146.23H314.383L314.417 144.529C314.462 143.794 314.482 143.365 314.482 143.365C314.482 143.365 314.916 130.968 315.765 128.458C316.555 126.15 317.197 114.521 317.296 112.677C317.296 112.519 317.296 112.436 317.296 112.436L317.232 111.36C317.276 110.576 317.296 109.704 317.291 108.786C317.291 104.57 316.851 99.2589 316.797 98.4008C316.797 98.2775 316.797 98.1296 316.797 97.9521C316.832 96.1521 316.605 87.1375 308.927 83.73C306.098 82.4675 302.696 80.9635 299.403 79.4988C298.554 72.1757 296.614 64.8921 296.782 57.5147C296.782 56.4052 296.88 55.2956 296.989 54.191C296.989 54.5115 296.954 54.837 296.949 55.1773C296.949 55.8923 296.949 56.6123 296.949 57.3274C297.241 48.1007 300.731 38.8248 300.406 29.7955C300.376 30.6782 300.312 31.5658 300.228 32.4535C300.398 29.3994 300.078 26.3377 299.28 23.3847C298.984 22.3441 298.584 21.2691 297.73 20.5738C296.922 20.0138 295.996 19.6476 295.024 19.5037C292.688 18.9064 290.314 18.4649 287.919 18.1821C287.555 17.0694 287.015 16.0222 286.32 15.0802C281.313 8.21575 273.897 1.7655 265.129 0.286088C260.73 -0.453619 255.669 0.162803 252.677 3.30409C252.365 3.58005 252.071 3.87659 251.798 4.19174C250.189 6.11005 249.498 8.62998 247.849 10.5434C247.74 10.6716 247.617 10.7899 247.498 10.9132C244.269 13.7981 239.238 14.3997 235.649 16.9887C235.016 17.4534 234.423 17.9697 233.876 18.5322C232.43 19.9637 231.133 21.5384 230.005 23.2318C228.391 25.5002 226.732 27.8624 226.219 30.5697C225.187 35.9942 228.885 41.1376 229.571 46.5967C231.102 58.8117 217.569 69.6509 220.131 81.7032C220.815 84.664 222.325 87.3708 224.486 89.5095C219.208 94.2831 214.715 98.9137 214.715 98.9137V99.1898H213.88L213.964 100.176H213.88L214.34 105.527L213.88 113.318C213.88 113.318 213.88 113.402 213.88 113.56V113.599V113.811C213.88 113.811 213.88 113.895 213.88 114.053H213.91C214.063 116.908 214.67 127.175 215.391 129.34C216.24 131.85 216.67 144.248 216.67 144.248C216.67 144.248 217.608 161.769 218.467 164.087C219.326 166.405 218.107 174.822 222.565 176.81C223.869 177.809 225.414 178.448 227.043 178.664C226.816 180.508 226.959 181.845 227.695 182.264C228.01 182.449 228.367 182.551 228.732 182.56C228.429 183.008 228.16 183.478 227.927 183.965C226.157 183.781 224.419 183.371 222.753 182.747C217.964 180.775 202.071 176.336 197.454 179.458C192.838 182.579 181.729 185.41 186.859 197.975C191.989 210.54 194.378 210.856 194.378 210.856C195.957 212.001 197.343 213.391 198.481 214.974C200.022 217.286 214.374 222.578 217.964 222.578C219.489 222.554 221.015 222.63 222.53 222.805C222.53 222.805 218.635 226.217 219.153 228.2C219.672 230.182 217.968 246.051 217.968 246.051C217.968 246.051 221.918 250.026 223.607 244.813L223.666 244.892C223.982 245.321 225.69 247.259 228.904 244.813C230.22 243.817 231.617 242.932 233.081 242.17L248.644 239.971C250.266 239.87 251.893 239.858 253.517 239.936C255.985 240.138 258.409 238.679 259.935 237.55C263.159 238.773 266.783 240.109 268.506 240.597C272.002 241.583 288.067 245.888 291.825 244.542C292.606 244.232 293.3 243.738 293.849 243.102L297.433 243.216L295.755 243.551C295.755 243.551 299.023 243.605 303.467 243.664L303.279 243.773L308.853 243.724C317.009 243.798 326.173 243.822 327.378 243.551C329.264 243.132 339.064 243.428 341.952 243.551H342.757C342.757 243.551 353.525 241.406 349.082 230.493C345.665 222.109 335.164 219.673 330.503 219.003C331.816 218.741 332.947 218.539 333.697 218.421C336.951 217.928 343.271 214.969 343.784 213.958C344.298 212.947 349.595 210.013 350.963 208.341C352.33 206.669 356.236 194.819 352.992 186.056ZM263.801 210.58L263.273 210.752L262.917 210.871L262.236 211.541C261.693 211.177 261.11 210.792 260.503 210.397C261.574 210.461 262.675 210.526 263.801 210.58Z" fill="url(#paint0_linear)"/>
<path d="M295.281 158.583C295.281 158.583 302.835 178.309 307.131 176.336C311.426 174.364 310.261 165.98 311.08 163.682C311.9 161.384 312.808 143.957 312.808 143.957C312.808 143.957 313.223 131.628 314.043 129.133C314.803 126.84 315.42 115.276 315.524 113.456C315.524 113.298 315.524 113.215 315.524 113.215L314.709 98.9135L310.098 97.7645L299.404 101.71L297.923 110.157L297.345 113.456L297.098 114.862L295.281 158.583Z" fill="#BE6F72"/>
<path opacity="0.1" d="M297.77 155.279C297.77 155.279 304.978 161.172 307.15 161.69C309.323 162.208 310.656 166.804 310.656 166.804" fill="black"/>
<path d="M236.207 159.446C236.207 159.446 228.654 179.172 224.358 177.199C220.063 175.227 221.228 166.843 220.408 164.545C219.589 162.247 218.68 144.82 218.68 144.82C218.68 144.82 218.266 132.491 217.446 129.996C216.686 127.703 216.069 116.139 215.965 114.319C215.965 114.161 215.965 114.078 215.965 114.078L216.784 99.7766L221.396 98.6276L232.09 102.573L233.571 111.02L234.149 114.319L234.396 115.725L236.207 159.446Z" fill="#BE6F72"/>
<path d="M285.397 53.885H268.536V80.1348H285.397V53.885Z" fill="#3E373A"/>
<path opacity="0.1" d="M285.397 53.885H268.536V80.1348H285.397V53.885Z" fill="black"/>
<path d="M233.245 179.093C233.245 179.093 227.483 185.42 229.621 186.569C231.758 187.718 245.588 209.253 245.588 209.253C245.588 209.253 291.01 214.841 299.576 206.457C308.142 198.074 307.97 183.097 307.97 183.097C307.97 183.097 301.087 184.577 300.337 183.773C299.586 182.969 295.464 179.093 295.464 179.093C295.464 179.093 237.194 175.562 233.245 179.093Z" fill="#4B4B5B"/>
<path opacity="0.02" d="M233.245 179.093C233.245 179.093 227.483 185.42 229.621 186.569C231.758 187.718 245.588 209.253 245.588 209.253C245.588 209.253 291.01 214.841 299.576 206.457C308.142 198.074 307.97 183.097 307.97 183.097C307.97 183.097 301.087 184.577 300.337 183.773C299.586 182.969 295.464 179.093 295.464 179.093C295.464 179.093 237.194 175.562 233.245 179.093Z" fill="black"/>
<path d="M315.015 99.1207L300.203 110.956L295.725 111.281L294.081 111.4L266.467 113.422L237.831 111.331L233.57 111.02L228.139 110.626L216.784 99.7766C216.784 99.7766 224.822 91.1762 231.862 85.372C234.637 83.0789 237.258 81.2247 239.169 80.4949L239.495 80.3815C240.697 79.9133 241.77 79.1662 242.625 78.2018C248.185 72.4765 253.324 58.3481 253.324 58.3481C253.324 58.3481 277.847 45.6942 274.885 62.2932C271.923 78.8922 285.91 74.7893 285.91 74.7893L290.521 76.8901L292.343 77.7235L296.989 79.8489L307.471 84.652C315.696 88.4344 315.015 99.1207 315.015 99.1207Z" fill="#BE6F72"/>
<path opacity="0.1" d="M265.317 71.8649C277.497 71.8649 287.372 62.0024 287.372 49.8365C287.372 37.6705 277.497 27.808 265.317 27.808C253.136 27.808 243.262 37.6705 243.262 49.8365C243.262 62.0024 253.136 71.8649 265.317 71.8649Z" fill="black"/>
<path opacity="0.1" d="M315.05 114.812H215.965C215.965 114.655 215.965 114.571 215.965 114.571L216.784 100.27C216.784 100.27 224.822 91.6694 231.863 85.8652L294.072 83.3995L296.965 80.3519L307.447 85.1551C315.677 88.9325 315.016 99.6188 315.016 99.6188C315.016 99.6188 316.141 112.002 315.05 114.812Z" fill="black"/>
<path d="M315.05 114.319H215.965C215.965 114.162 215.965 114.078 215.965 114.078L216.784 99.7767C216.784 99.7767 224.822 91.1764 231.863 85.3722L294.072 82.9065L296.965 79.8589L307.447 84.6621C315.677 88.4395 315.016 99.1258 315.016 99.1258C315.016 99.1258 316.141 111.508 315.05 114.319Z" fill="#E7C7CA"/>
<path opacity="0.1" d="M249.434 74.2174C249.434 74.2174 265.065 94.1105 285.885 73.808C306.706 53.5056 288.191 119.093 288.191 119.093L243.262 124.419L249.434 74.2174Z" fill="black"/>
<path d="M249.434 75.2037C249.434 75.2037 265.065 95.0969 285.885 74.7944C306.706 54.4919 288.191 120.079 288.191 120.079L243.262 125.405L249.434 75.2037Z" fill="#E7C7CA"/>
<path opacity="0.1" d="M292.319 78.6949L293.973 103.889L295.745 112.273L297.098 118.683C297.098 118.683 300.554 167.997 299.567 170.463C298.579 172.929 300.06 174.901 300.268 176.213C300.475 177.525 300.06 180.819 300.223 182.298C300.386 183.778 300.223 184.434 296.441 183.906C292.66 183.378 287.387 182.461 287.387 182.461C287.387 182.461 274.056 183.447 269.45 181.805C264.843 180.163 256.119 180.158 256.119 180.158C256.119 180.158 242.952 180.488 238.676 179.995C234.4 179.502 232.09 185.257 229.295 183.61C226.501 181.963 232.583 166.025 234.558 161.419C236.533 156.813 231.927 145.145 231.927 145.145L237.851 112.317L239.17 104.876V81.4811L239.495 81.3677C240.697 80.8996 241.77 80.1524 242.626 79.188L244.107 102.73L290.517 104.378V77.8812" fill="black"/>
<path d="M292.319 77.7088L293.973 102.903L295.745 111.287L297.098 117.697C297.098 117.697 300.554 167.011 299.567 169.477C298.579 171.943 300.06 173.915 300.268 175.227C300.475 176.539 300.06 179.833 300.223 181.312C300.386 182.792 300.223 183.447 296.441 182.92C292.66 182.392 287.387 181.475 287.387 181.475C287.387 181.475 274.056 182.461 269.45 180.819C264.843 179.177 256.119 179.172 256.119 179.172C256.119 179.172 242.952 179.502 238.676 179.009C234.4 178.516 232.09 184.271 229.295 182.624C226.501 180.977 232.583 165.039 234.558 160.433C236.533 155.827 231.927 144.159 231.927 144.159L237.851 111.331L239.17 103.89V80.495L239.495 80.3816C240.697 79.9135 241.77 79.1664 242.626 78.202L244.107 101.744L290.517 103.391V76.8951" fill="#E7C7CA"/>
<path opacity="0.1" d="M297.656 25.1305C297.375 24.0998 296.984 23.0297 296.175 22.3393C295.402 21.7848 294.509 21.4199 293.568 21.2742C291.316 20.6827 289.026 20.2444 286.715 19.9624C286.385 18.8674 285.885 17.8308 285.234 16.8902C280.395 10.0651 273.236 3.62968 264.813 2.17492C260.404 1.41056 255.294 2.09602 252.47 5.56771C250.92 7.47615 250.253 10.006 248.688 11.8799C245.672 15.5192 240.226 15.968 236.424 18.7838C234.395 20.2632 232.924 22.4084 231.487 24.4894C229.932 26.7431 228.332 29.0904 227.838 31.7829C226.851 37.1631 230.411 42.2917 231.067 47.7211C232.549 59.8671 219.514 70.6422 221.978 82.6254C223.415 89.6132 229.877 94.5347 236.562 97.03C238.918 97.9127 241.608 98.7905 242.709 101.049C243.203 102.035 243.287 103.174 243.751 104.171C245.311 107.494 250.441 107.623 253.196 105.201C255.951 102.78 256.82 98.8645 257.146 95.2103C258.469 79.2524 252.07 63.4868 252.816 47.4894C253.038 42.6517 254.401 37.1631 258.741 34.9735C264.581 32.0147 271.607 36.9461 278.035 36.0042C281.077 43.397 281.723 51.5561 279.882 59.3345C278.86 63.5903 277.092 67.7179 276.964 72.1068C276.771 78.7888 280.381 84.8939 283.501 90.8017C284.17 91.9064 284.618 93.1308 284.819 94.4065C284.868 95.7009 284.627 96.9898 284.113 98.179C282.35 102.918 279.309 107.317 278.964 112.362C278.862 112.951 278.995 113.556 279.334 114.048C279.682 114.377 280.131 114.578 280.608 114.62C285.94 115.533 290.551 110.813 293.153 106.074C296.054 100.84 297.745 95.0232 298.1 89.051C298.638 79.0107 295.034 69.1332 295.256 59.083C295.513 47.657 300.682 36.1521 297.656 25.1305Z" fill="black"/>
<path d="M298.149 24.6372C297.868 23.6065 297.478 22.5364 296.668 21.846C295.895 21.2915 295.002 20.9266 294.061 20.7809C291.809 20.1894 289.52 19.7511 287.208 19.4691C286.878 18.3741 286.379 17.3375 285.727 16.3969C280.889 9.57184 273.73 3.13639 265.307 1.68164C260.898 0.917273 255.788 1.60273 252.964 5.07442C251.414 6.98287 250.747 9.51267 249.182 11.3866C246.165 15.0259 240.72 15.4747 236.918 18.2905C234.889 19.7699 233.417 21.9151 231.981 23.9961C230.425 26.2498 228.826 28.5971 228.332 31.2896C227.345 36.6698 230.904 41.7984 231.561 47.2278C233.042 59.3738 220.008 70.1489 222.472 82.1321C223.908 89.1199 230.371 94.0414 237.056 96.5367C239.411 97.4194 242.102 98.2972 243.203 100.556C243.697 101.542 243.781 102.681 244.245 103.677C245.805 107.001 250.935 107.129 253.69 104.708C256.445 102.287 257.314 98.3712 257.639 94.717C258.963 78.7591 252.564 62.9935 253.309 46.9961C253.532 42.1584 254.894 36.6698 259.234 34.4802C265.075 31.5214 272.101 36.4528 278.529 35.5109C281.571 42.9037 282.217 51.0629 280.375 58.8412C279.353 63.097 277.586 67.2246 277.457 71.6135C277.265 78.2955 280.874 84.4006 283.994 90.3084C284.664 91.4131 285.112 92.6375 285.313 93.9132C285.362 95.2076 285.12 96.4965 284.607 97.6857C282.844 102.425 279.803 106.824 279.457 111.868C279.356 112.457 279.489 113.062 279.827 113.555C280.175 113.884 280.624 114.085 281.101 114.127C286.433 115.039 291.045 110.32 293.647 105.581C296.548 100.347 298.238 94.5299 298.594 88.5577C299.132 78.5174 295.528 68.6399 295.75 58.5897C296.007 47.1637 301.176 35.6588 298.149 24.6372Z" fill="#3E373A"/>
<path d="M287.243 242.984L306.829 243.61L304.02 229.102L289.016 230.527L287.243 242.984Z" fill="#C3C7D9"/>
<path d="M347.932 208.597C346.614 210.239 341.514 213.198 341.02 214.185C340.526 215.171 334.439 218.13 331.309 218.623C328.178 219.116 318.309 221.256 316.497 222.405C315.198 223.234 304.776 225.857 297.928 227.312C296.073 227.75 294.196 228.088 292.305 228.323C289.342 228.486 256.924 217.474 256.924 217.474L263.175 211.063L263.52 210.945C265.288 210.348 273.454 207.591 277.987 206.28C283.092 204.8 289.016 198.72 289.016 198.72C289.016 198.72 297.735 195.761 298.891 195.431C300.046 195.1 295.928 183.926 295.928 183.926C295.928 183.926 314.853 181.302 322.259 179.078C329.665 176.854 346.782 177.678 349.907 186.391C353.032 195.105 349.27 206.955 347.932 208.597Z" fill="#4B4B5B"/>
<path d="M261.693 236.376C261.693 236.376 257.911 240.321 254.124 239.995C250.337 239.67 237.095 240.982 237.095 240.982C234.696 241.938 232.449 243.239 230.425 244.843C227.329 247.279 225.685 245.336 225.379 244.922L225.325 244.843C223.676 250.026 219.894 246.076 219.894 246.076C219.894 246.076 221.538 230.295 221.035 228.323C220.531 226.35 224.288 222.962 224.288 222.962L228.732 221.833L239.989 218.953L256.118 224.54L261.693 236.376Z" fill="#E7C7CA"/>
<path opacity="0.1" d="M228.712 221.833L225.379 244.922L225.325 244.843C223.676 250.026 219.894 246.076 219.894 246.076C219.894 246.076 221.538 230.295 221.035 228.323C220.531 226.35 224.288 222.962 224.288 222.962L228.712 221.833Z" fill="black"/>
<path opacity="0.1" d="M252.007 156.157C252.007 156.157 260.726 159.116 268.3 156.157H252.007Z" fill="black"/>
<path opacity="0.1" d="M281.773 161.749C281.773 161.749 285.392 163.554 288.191 161.749H281.773Z" fill="black"/>
<path opacity="0.1" d="M281.773 166.03C281.773 166.03 287.861 166.843 289.016 165.201L281.773 166.03Z" fill="black"/>
<path opacity="0.1" d="M279.798 175.227C279.798 175.227 291.233 173.747 294.071 171.775L279.798 175.227Z" fill="black"/>
<path opacity="0.1" d="M244.907 171.775C244.907 171.775 251.325 175.389 256.099 175.227L244.907 171.775Z" fill="black"/>
<path opacity="0.1" d="M297.923 227.312C296.068 227.75 294.191 228.088 292.299 228.323C289.337 228.486 256.919 217.474 256.919 217.474L263.169 211.063L263.515 210.945C264.503 211.64 265.312 212.237 265.89 212.69C268.61 214.831 271.237 212.035 272.224 212.035C273.212 212.035 281.768 219.101 281.768 219.101C281.768 219.101 289.668 220.911 290.986 222.553C292.304 224.195 296.911 223.87 297.73 225.019C297.977 225.374 298.007 226.247 297.923 227.312Z" fill="black"/>
<path d="M237.096 184.596C237.096 184.596 229.108 185.055 224.501 183.117C219.895 181.179 204.589 176.706 200.146 179.847C195.702 182.989 185.003 185.765 189.94 198.261C194.878 210.757 197.183 211.083 197.183 211.083C198.711 212.227 200.045 213.609 201.133 215.176C202.614 217.479 216.439 222.736 219.895 222.736C223.351 222.736 229.438 222.736 237.995 228.653C246.551 234.571 254.287 235.232 254.287 235.232C254.287 235.232 265.149 239.67 268.531 240.656C271.913 241.643 287.367 245.913 290.991 244.601C294.615 243.29 296.916 235.064 296.916 235.064C296.916 235.064 298.56 227.667 297.735 226.518C296.911 225.369 292.304 225.694 290.991 224.052C289.678 222.41 281.773 220.6 281.773 220.6C281.773 220.6 273.237 213.529 272.249 213.529C271.262 213.529 268.635 216.32 265.915 214.185C260.496 210.176 254.802 206.55 248.876 203.336C242.626 200.046 237.096 184.596 237.096 184.596Z" fill="#4B4B5B"/>
<path opacity="0.1" d="M221.035 189.365C222.458 189.075 223.928 189.116 225.331 189.487C226.735 189.857 228.034 190.546 229.127 191.5C233.077 194.789 246.368 201.393 246.368 201.393" fill="black"/>
<path opacity="0.1" d="M319.79 189.158C319.79 189.158 302.179 191.821 298.891 195.435L319.79 189.158Z" fill="black"/>
<path d="M340.032 243.61H339.257C336.472 243.511 327.037 243.216 325.22 243.61C323.083 244.103 294.772 243.61 294.772 243.61L300.307 242.461C300.307 242.461 298.253 235.271 299.557 234.674C299.557 234.674 292.151 229.802 297.735 226.513C303.319 223.224 309.337 224.61 309.337 224.61L323.354 219.866L326.045 218.953C326.045 218.953 341.844 219.777 346.12 230.626C350.395 241.475 340.032 243.61 340.032 243.61Z" fill="#E7C7CA"/>
<path opacity="0.1" d="M340.032 243.61H339.257C343.854 239.823 354.252 228.293 323.354 219.89L326.045 218.978C326.045 218.978 341.844 219.801 346.12 230.65C350.396 241.5 340.032 243.61 340.032 243.61Z" fill="black"/>
<path d="M310.987 230.828C311.464 230.828 311.851 230.442 311.851 229.965C311.851 229.488 311.464 229.102 310.987 229.102C310.509 229.102 310.123 229.488 310.123 229.965C310.123 230.442 310.509 230.828 310.987 230.828Z" fill="#4B4B5B"/>
<path d="M305.966 232.253C306.443 232.253 306.83 231.867 306.83 231.39C306.83 230.914 306.443 230.527 305.966 230.527C305.488 230.527 305.102 230.914 305.102 231.39C305.102 231.867 305.488 232.253 305.966 232.253Z" fill="#4B4B5B"/>
<g opacity="0.1">
<path opacity="0.1" d="M281.502 49.0229C281.693 43.5988 280.727 38.196 278.668 33.1734C272.249 34.1301 265.219 29.1839 259.373 32.1428C255.048 34.3323 253.69 39.8209 253.448 44.6586C253.389 45.9358 253.379 47.2131 253.404 48.4903C253.404 48.0366 253.404 47.578 253.448 47.1243C253.675 42.2866 255.033 36.798 259.373 34.6085C265.219 31.6496 272.239 36.581 278.668 35.6391C280.412 39.8934 281.372 44.4276 281.502 49.0229Z" fill="black"/>
<path opacity="0.1" d="M231.764 48.1203C231.848 47.0457 231.827 45.9655 231.7 44.8952C231.176 40.5555 228.802 36.4082 228.372 32.1771C227.819 37.2811 231.073 42.1829 231.7 47.3608C231.764 47.6271 231.764 47.8638 231.764 48.1203Z" fill="black"/>
<path opacity="0.1" d="M257.778 92.3745C257.472 96.0336 256.608 99.9442 253.829 102.37C251.049 104.797 245.929 104.664 244.384 101.34C243.89 100.353 243.816 99.2045 243.337 98.2182C242.241 95.9596 239.545 95.0819 237.19 94.1991C230.5 91.6989 224.047 86.8021 222.61 79.7946C222.482 79.1597 222.395 78.5174 222.349 77.8713C222.227 79.3393 222.315 80.8171 222.61 82.2603C224.047 89.248 230.51 94.1646 237.19 96.6648C239.545 97.5475 242.241 98.4253 243.337 100.684C243.831 101.67 243.915 102.809 244.384 103.805C245.939 107.129 251.069 107.257 253.829 104.836C256.589 102.415 257.448 98.4993 257.778 94.8402C257.929 92.9143 257.98 90.9819 257.931 89.0508C257.931 90.1702 257.867 91.2748 257.778 92.3745Z" fill="black"/>
<path opacity="0.1" d="M295.914 56.2521C295.914 56.9672 295.914 57.6773 295.914 58.3874C296.19 49.215 299.557 39.9933 299.227 31.0133C298.97 39.3177 296.101 47.8096 295.914 56.2521Z" fill="black"/>
<path opacity="0.1" d="M285.318 93.3557C285.44 92.7706 285.478 92.1713 285.432 91.5755C285.233 90.2992 284.785 89.0744 284.114 87.9706C281.26 82.5461 278.006 76.9934 277.621 70.9722C277.621 71.2286 277.586 71.4653 277.581 71.7415C277.384 78.4185 280.993 84.5285 284.114 90.4363C284.644 91.3513 285.049 92.3332 285.318 93.3557Z" fill="black"/>
<path opacity="0.1" d="M298.753 86.2202C298.384 92.1946 296.682 98.011 293.771 103.243C291.164 107.982 286.558 112.702 281.221 111.789C280.742 111.748 280.293 111.545 279.947 111.212C279.847 111.099 279.768 110.969 279.715 110.828C279.655 111.212 279.606 111.602 279.577 111.996C279.474 112.584 279.607 113.188 279.947 113.678C280.293 114.01 280.742 114.214 281.221 114.255C286.558 115.167 291.164 110.448 293.771 105.709C296.682 100.477 298.384 94.6603 298.753 88.6858C298.812 87.5319 298.817 86.3829 298.782 85.2339C298.772 85.5643 298.772 85.8898 298.753 86.2202Z" fill="black"/>
</g>
<path opacity="0.1" d="M299.557 234.674C299.557 234.674 312.053 239.912 320.293 228.323" stroke="black" stroke-miterlimit="10"/>
<path opacity="0.1" d="M302.016 243.827C302.016 243.827 312.221 237.199 325.221 243.61" stroke="black" stroke-miterlimit="10"/>
<path opacity="0.1" d="M233.704 242.323C233.704 242.323 237.989 232.667 249.434 240.03" stroke="black" stroke-miterlimit="10"/>
<path opacity="0.1" d="M219.811 99.5299L228.55 91.6397C228.55 91.6397 262.434 89.4206 263.836 100.925C263.836 100.925 275.849 87.2853 301.112 90.323L311.802 98.8247L282.257 111.775L253.547 121.721L232.401 112.268L219.811 99.5299Z" fill="black"/>
<path d="M219.811 100.023L228.55 92.133C228.55 92.133 262.434 89.9139 263.836 101.419C263.836 101.419 275.849 87.7786 301.112 90.8163L311.802 99.318L282.257 112.268L253.547 122.214L232.401 112.761L219.811 100.023Z" fill="#D5D6DB"/>
<path opacity="0.1" d="M215.945 101.009L219.811 147.202L260.79 149.258L259.013 103.263L258.978 102.489L215.945 101.009Z" fill="black"/>
<path d="M215.945 100.023L219.811 146.215L260.79 148.272L259.013 102.277L258.978 101.503L215.945 100.023Z" fill="#8348FF"/>
<path opacity="0.1" d="M313.678 100.023L271.405 106.355V152.754L312.715 146.792L313.678 100.023Z" fill="black"/>
<path d="M313.678 99.0369L271.405 105.369V151.768L312.715 145.806L313.678 99.0369Z" fill="#8348FF"/>
<path opacity="0.3" d="M303.709 110.359L280.874 112.894L281.373 120.666L303.694 118.23L303.709 110.359Z" fill="white"/>
<path d="M222.032 170.951L224.358 177.199C224.358 177.199 227.814 180.158 231.596 178.679C235.378 177.199 238.676 176.464 240.32 175.025C241.964 173.585 244.27 166.35 244.27 166.35C244.27 166.35 246.575 158.46 248.876 156.487C251.177 154.515 257.269 127.338 248.876 129.996C240.483 132.654 234.064 157.311 234.064 157.311C234.064 157.311 232.583 159.116 230.445 159.284C228.308 159.451 224.027 158.953 223.202 160.763C222.378 162.573 219.564 167.336 222.032 170.951Z" fill="#BE6F72"/>
<path opacity="0.1" d="M271.404 106.35C269.24 106.837 266.992 106.812 264.839 106.276C262.686 105.74 260.689 104.708 259.007 103.263L260.789 149.253C260.789 149.253 264.986 153.79 271.404 152.754V106.35Z" fill="black"/>
<path d="M271.404 105.364C269.24 105.851 266.992 105.825 264.839 105.289C262.686 104.753 260.689 103.722 259.007 102.277L260.789 148.267C260.789 148.267 264.986 152.804 271.404 151.768V105.364Z" fill="#8348FF"/>
<path opacity="0.1" d="M271.404 105.364C269.24 105.851 266.992 105.825 264.839 105.289C262.686 104.753 260.689 103.722 259.007 102.277L260.789 148.267C260.789 148.267 264.986 152.804 271.404 151.768V105.364Z" fill="black"/>
<path opacity="0.1" d="M272.392 100.181C272.392 100.181 289.589 94.929 294.072 95.6687L272.392 100.181Z" fill="black"/>
<path opacity="0.1" d="M253.156 97.888C253.156 97.888 236.488 93.9429 233.704 95.0623L253.156 97.888Z" fill="black"/>
<path opacity="0.1" d="M283.234 100.837C283.234 100.837 294.733 96.6255 298.89 98.6276L283.234 100.837Z" fill="black"/>
<path opacity="0.1" d="M277.443 206.482C279.225 205.145 281.121 203.968 283.111 202.966C286.073 201.54 291.504 197.842 291.504 197.842" fill="black"/>
<path opacity="0.1" d="M233.704 156.157C233.704 156.157 226.491 162.05 224.323 162.568C222.156 163.086 220.818 167.682 220.818 167.682" fill="black"/>
<path d="M309.436 170.073L307.136 176.336C307.136 176.336 303.68 179.295 299.893 177.816C296.106 176.336 292.818 175.602 291.169 174.162C289.52 172.722 287.219 165.487 287.219 165.487C287.219 165.487 284.918 157.597 282.612 155.624C280.307 153.652 274.219 126.475 282.612 129.133C291.006 131.791 297.424 156.448 297.424 156.448C297.424 156.448 298.905 158.253 301.043 158.421C303.181 158.588 307.462 158.09 308.286 159.9C309.111 161.71 311.905 166.474 309.436 170.073Z" fill="#BE6F72"/>
<path opacity="0.1" d="M305.402 158.554C305.402 158.554 310.117 161.581 310.098 165.201L305.402 158.554Z" fill="black"/>
<path d="M265.396 70.7851C277.576 70.7851 287.451 60.9226 287.451 48.7566C287.451 36.5906 277.576 26.7281 265.396 26.7281C253.216 26.7281 243.341 36.5906 243.341 48.7566C243.341 60.9226 253.216 70.7851 265.396 70.7851Z" fill="#BE6F72"/>
<path d="M251.547 42.8438C254.223 42.4246 256.568 40.8712 259.125 39.9786C264.848 37.9716 271.177 39.3474 276.968 41.1572C279.19 41.8526 281.446 42.6367 283.777 42.6367C286.107 42.6367 288.581 41.6849 289.771 39.6778C290.867 37.8335 290.654 35.4368 289.731 33.4988C288.808 31.5608 287.263 30.0025 285.702 28.5329C280.568 23.6903 274.199 19.1633 267.153 19.6564C264.319 19.8586 261.609 20.8695 259.002 21.989C255.719 23.4018 252.524 25.009 249.433 26.802C247.059 28.1778 242.66 30.0172 241.292 32.5323C238.182 38.1984 246.708 43.6032 251.547 42.8438Z" fill="#3E373A"/>
<path opacity="0.1" d="M289.771 37.6066C288.581 39.6137 286.108 40.5654 283.777 40.5654C281.447 40.5654 279.191 39.8109 276.964 39.1156C271.173 37.3058 264.848 35.925 259.121 37.937C256.568 38.8296 254.218 40.4027 251.542 40.7972C247.642 41.4087 241.362 38.0159 240.68 33.7009C239.915 38.6866 247.197 42.9571 251.542 42.2766C254.218 41.8574 256.568 40.304 259.121 39.4164C264.848 37.4044 271.173 38.7852 276.964 40.595C279.191 41.2903 281.442 42.0744 283.777 42.0448C286.113 42.0152 288.581 41.098 289.771 39.086C290.388 37.9914 290.631 36.7259 290.462 35.4812C290.385 36.2305 290.15 36.955 289.771 37.6066Z" fill="black"/>
<path d="M468.751 304.863C468.751 304.863 471.679 308.685 467.398 314.459C463.117 320.234 459.592 325.106 461.014 328.706C461.014 328.706 467.472 317.985 472.725 317.832C477.978 317.679 474.522 311.308 468.751 304.863Z" fill="#8348FF"/>
<path opacity="0.1" d="M468.752 304.863C469.006 305.232 469.208 305.635 469.349 306.061C474.474 312.077 477.209 317.694 472.277 317.832C467.685 317.965 462.18 326.166 460.862 328.233C460.904 328.4 460.955 328.564 461.015 328.726C461.015 328.726 467.473 318.005 472.726 317.852C477.979 317.699 474.523 311.308 468.752 304.863Z" fill="black"/>
<path d="M474.182 309.735C474.182 311.081 474.029 312.171 473.846 312.171C473.663 312.171 473.505 311.081 473.505 309.735C473.505 308.389 473.693 309.025 473.881 309.025C474.068 309.025 474.182 308.389 474.182 309.735Z" fill="#FFD037"/>
<path d="M476.053 311.343C474.873 311.984 473.841 312.373 473.752 312.21C473.663 312.048 474.547 311.392 475.727 310.731C476.907 310.07 476.443 310.554 476.532 310.731C476.621 310.909 477.238 310.697 476.053 311.343Z" fill="#FFD037"/>
<path d="M453.278 304.863C453.278 304.863 450.35 308.685 454.63 314.459C458.911 320.234 462.436 325.106 461.009 328.706C461.009 328.706 454.556 317.985 449.298 317.832C444.04 317.679 447.521 311.308 453.278 304.863Z" fill="#8348FF"/>
<path opacity="0.1" d="M453.277 304.863C453.023 305.232 452.821 305.635 452.68 306.061C447.555 312.077 444.82 317.694 449.752 317.832C454.339 317.965 459.849 326.166 461.167 328.233C461.126 328.4 461.073 328.565 461.009 328.726C461.009 328.726 454.556 318.005 449.298 317.852C444.04 317.699 447.521 311.308 453.277 304.863Z" fill="black"/>
<path d="M447.836 309.735C447.836 311.081 447.985 312.171 448.172 312.171C448.36 312.171 448.513 311.081 448.513 309.735C448.513 308.389 448.32 309.025 448.138 309.025C447.955 309.025 447.836 308.389 447.836 309.735Z" fill="#FFD037"/>
<path d="M445.971 311.343C447.151 311.984 448.183 312.373 448.272 312.21C448.361 312.048 447.477 311.392 446.297 310.731C445.117 310.07 445.581 310.554 445.492 310.731C445.403 310.909 444.786 310.697 445.971 311.343Z" fill="#FFD037"/>
<path opacity="0.1" d="M461.015 357.959C477.921 357.959 491.625 355.859 491.625 353.269C491.625 350.679 477.921 348.58 461.015 348.58C444.109 348.58 430.404 350.679 430.404 353.269C430.404 355.859 444.109 357.959 461.015 357.959Z" fill="#8348FF"/>
<path d="M476.769 323.553L476.62 324.746L476.413 326.433L476.329 327.138L476.122 328.824L476.033 329.53L475.83 331.211L473.485 350.394C473.278 352.105 470.478 353.442 467.096 353.442H454.926C451.544 353.442 448.75 352.105 448.537 350.394L446.192 331.211L445.985 329.53L445.901 328.824L445.693 327.138L445.605 326.433L445.402 324.746L445.254 323.553C445.14 322.566 446.651 321.768 448.567 321.768H473.461C475.371 321.768 476.887 322.581 476.769 323.553Z" fill="#65617D"/>
<path d="M476.621 324.746L476.419 326.433H445.611L445.403 324.746H476.621Z" fill="#9D9CB5"/>
<path d="M476.329 327.138L476.127 328.824H445.901L445.694 327.138H476.329Z" fill="#9D9CB5"/>
<path d="M476.038 329.53L475.83 331.216H446.192L445.99 329.53H476.038Z" fill="#9D9CB5"/>
</g>
<defs>
<linearGradient id="paint0_linear" x1="269.888" y1="247.516" x2="269.888" y2="6.64009e-05" gradientUnits="userSpaceOnUse">
<stop stop-color="#808080" stop-opacity="0.25"/>
<stop offset="0.54" stop-color="#808080" stop-opacity="0.12"/>
<stop offset="1" stop-color="#808080" stop-opacity="0.1"/>
</linearGradient>
<clipPath id="clip0">
<rect width="505" height="401" fill="white"/>
</clipPath>
</defs>
</svg>
