<svg width="544" height="315" viewBox="0 0 544 315" fill="none" xmlns="http://www.w3.org/2000/svg">
<rect width="275.187" height="352.957" transform="matrix(-0.866044 -0.499967 -0.866044 0.499967 544 137.913)" fill="white"/>
<path d="M247.267 130.667L231.742 139.629C222.134 145.176 216.711 152.683 216.664 160.5C216.618 168.317 221.952 175.803 231.494 181.311C241.035 186.82 254.002 189.899 267.543 189.872C281.083 189.845 294.088 186.714 303.695 181.168L319.22 172.205L329.5 178.139L313.974 187.102C302.516 193.711 287.271 197.667 271.152 198.215C255.033 198.764 239.17 195.865 226.593 190.074L215.933 196.229L236.491 208.097L226.141 214.072L174.746 184.401L185.096 178.426L205.654 190.295L216.314 184.14C206.283 176.88 201.263 167.722 202.213 158.417C203.162 149.111 210.016 140.31 221.463 133.695L236.988 124.733L247.267 130.667Z" fill="#8348FF"/>
<path d="M241.841 175.335C235.025 171.401 231.215 166.054 231.249 160.47C231.282 154.887 235.156 149.524 242.018 145.562L293.769 115.687C300.631 111.725 309.92 109.489 319.592 109.469C329.264 109.45 338.526 111.65 345.341 115.584C352.157 119.519 355.967 124.866 355.934 130.45C355.9 136.033 352.026 141.396 345.164 145.357L293.414 175.233C286.551 179.195 277.262 181.431 267.591 181.45C257.919 181.469 248.656 179.27 241.841 175.335Z" fill="#8348FF"/>
<path d="M526.978 128.086L490.094 106.793L387.25 166.166L431.403 161.969L424.133 187.458L526.978 128.086Z" fill="#8348FF"/>
</svg>
