<svg width="886" height="533" viewBox="0 0 886 533" fill="none" xmlns="http://www.w3.org/2000/svg">
<rect width="886" height="533" fill="#F5F5F5"/>
<rect x="129" width="628" height="533" fill="#F5F5F5"/>
<rect x="341.606" y="150" width="187.113" height="220.435" rx="5.12639" transform="rotate(3.11702 341.606 150)" fill="#C4C4C4"/>
<path d="M332.912 378.124H509.773C512.604 378.124 514.899 375.829 514.899 372.998V170.505L499.52 157.689H332.912C330.081 157.689 327.786 159.984 327.786 162.816V372.998C327.786 375.829 330.081 378.124 332.912 378.124Z" fill="white"/>
<path d="M512.336 344.256L544.326 378.448C546.777 381.068 550.916 381.122 553.434 378.566C555.799 376.166 555.862 372.332 553.578 369.855L521.308 334.853L512.336 344.256Z" fill="#C4C4C4"/>
<circle cx="481.584" cy="306.361" r="48.9405" transform="rotate(-45 481.584 306.361)" fill="#C4C4C4"/>
<circle cx="482.276" cy="306.361" r="37.6842" transform="rotate(-45 482.276 306.361)" fill="white"/>
<path d="M497.938 322.713L466.616 291.391M497.937 291.391L466.616 322.713" stroke="#C4C4C4" stroke-width="7.68959" stroke-linecap="round"/>
<path d="M392.907 274.484H373.763C373.816 269.624 374.217 265.459 374.964 261.988C375.765 258.517 377.074 255.393 378.889 252.616C380.705 249.786 383.161 246.903 386.259 243.966C388.715 241.669 390.904 239.507 392.827 237.477C394.803 235.395 396.351 233.232 397.473 230.989C398.594 228.693 399.155 226.103 399.155 223.22C399.155 219.962 398.621 217.239 397.553 215.05C396.538 212.86 395.016 211.205 392.987 210.083C391.011 208.909 388.528 208.321 385.538 208.321C383.081 208.321 380.758 208.828 378.569 209.843C376.38 210.858 374.617 212.433 373.282 214.569C371.947 216.651 371.227 219.375 371.12 222.739H349.893C350.053 215.744 351.709 209.923 354.859 205.277C358.01 200.578 362.255 197.08 367.595 194.784C372.935 192.435 378.916 191.26 385.538 191.26C392.853 191.26 399.101 192.488 404.281 194.944C409.514 197.347 413.493 200.872 416.216 205.518C418.993 210.163 420.381 215.77 420.381 222.339C420.381 227.038 419.473 231.256 417.658 234.994C415.842 238.679 413.439 242.123 410.449 245.327C407.458 248.531 404.228 251.762 400.757 255.019C397.713 257.743 395.657 260.653 394.589 263.75C393.521 266.847 392.96 270.425 392.907 274.484ZM371.761 299.395C371.761 296.191 372.828 293.521 374.964 291.385C377.154 289.249 380.091 288.181 383.775 288.181C387.46 288.181 390.37 289.249 392.506 291.385C394.696 293.521 395.79 296.191 395.79 299.395C395.79 302.492 394.696 305.109 392.506 307.245C390.37 309.381 387.46 310.449 383.775 310.449C380.091 310.449 377.154 309.381 374.964 307.245C372.828 305.109 371.761 302.492 371.761 299.395Z" fill="#B0B2B8"/>
<path d="M390.343 274.484H371.2C371.253 269.624 371.653 265.459 372.401 261.988C373.202 258.517 374.51 255.393 376.326 252.616C378.142 249.786 380.598 246.903 383.695 243.966C386.152 241.669 388.341 239.507 390.263 237.477C392.239 235.395 393.788 233.232 394.909 230.989C396.03 228.693 396.591 226.103 396.591 223.22C396.591 219.962 396.057 217.239 394.989 215.05C393.975 212.86 392.453 211.205 390.424 210.083C388.448 208.909 385.965 208.321 382.974 208.321C380.518 208.321 378.195 208.828 376.006 209.843C373.816 210.858 372.054 212.433 370.719 214.569C369.384 216.651 368.663 219.375 368.556 222.739H347.33C347.49 215.744 349.145 209.923 352.296 205.277C355.447 200.578 359.692 197.08 365.032 194.784C370.372 192.435 376.353 191.26 382.974 191.26C390.29 191.26 396.538 192.488 401.718 194.944C406.951 197.347 410.929 200.872 413.652 205.518C416.429 210.163 417.818 215.77 417.818 222.339C417.818 227.038 416.91 231.256 415.094 234.994C413.279 238.679 410.876 242.123 407.885 245.327C404.895 248.531 401.664 251.762 398.193 255.019C395.149 257.743 393.093 260.653 392.026 263.75C390.958 266.847 390.397 270.425 390.343 274.484ZM369.197 299.395C369.197 296.191 370.265 293.521 372.401 291.385C374.59 289.249 377.527 288.181 381.212 288.181C384.897 288.181 387.807 289.249 389.943 291.385C392.132 293.521 393.227 296.191 393.227 299.395C393.227 302.492 392.132 305.109 389.943 307.245C387.807 309.381 384.897 310.449 381.212 310.449C377.527 310.449 374.59 309.381 372.401 307.245C370.265 305.109 369.197 302.492 369.197 299.395Z" fill="#C4C4C4"/>
<path d="M499.52 157.69L514.899 170.506C508.644 175.175 501.05 172.347 500.802 171.787C500.802 171.787 496.042 164.531 499.52 157.69Z" fill="#E5E5E5"/>
</svg>
